<?xml version="1.0" encoding="utf-8"?>
<!-- Generator: Adobe Illustrator 27.8.1, SVG Export Plug-In . SVG Version: 6.00 Build 0)  -->
<svg version="1.1" xmlns="http://www.w3.org/2000/svg" xmlns:xlink="http://www.w3.org/1999/xlink" x="0px" y="0px"
	 viewBox="0 0 1920 13148.6" style="enable-background:new 0 0 1920 13148.6;" xml:space="preserve">
<style type="text/css">
	.Drop_x0020_Shadow{fill:none;}
	.Round_x0020_Corners_x0020_2_x0020_pt{fill:#FFFFFF;stroke:#231F20;stroke-miterlimit:10;}
	.Live_x0020_Reflect_x0020_X{fill:none;}
	.Bevel_x0020_Soft{fill:url(#SVGID_1_);}
	.Dusk{fill:#FFFFFF;}
	.Foliage_GS{fill:#FFDD00;}
	.Pompadour_GS{fill-rule:evenodd;clip-rule:evenodd;fill:#44ADE2;}
	.st0{fill:url(#SVGID_00000067226557926901201830000017145286263045683375_);}
	.st1{opacity:0.3;fill:#8B5E3C;}
	.st2{clip-path:url(#SVGID_00000039811830244219000050000005930629115577410468_);}
	.st3{fill:#EAB28D;}
	.st4{fill:url(#SVGID_00000058557478468007247710000001512497218024327818_);}
	.st5{fill:url(#SVGID_00000094596185481169687060000016391347300984594072_);}
	.st6{fill:url(#SVGID_00000138558782328642075710000007509096122171069093_);}
	.st7{opacity:0.5;fill:url(#SVGID_00000158011716363039805750000017551871360173699775_);}
	.st8{display:none;}
	.st9{display:inline;}
	.st10{fill:#E6E7E8;}
	.st11{fill:url(#SVGID_00000062162547045592855570000003246259141475287431_);}
	.st12{fill:url(#SVGID_00000057117758360118201430000004968391752544857992_);}
	.st13{fill:#808285;}
	.st14{fill:#D1D3D4;}
	.st15{fill:#BCBEC0;}
	.st16{fill:#CFD6DF;}
	.st17{fill:url(#SVGID_00000049907460113489930600000013437208351930698642_);}
	.st18{fill:url(#SVGID_00000137844812700573256010000018276317489062461615_);}
	.st19{display:inline;fill:url(#SVGID_00000023245392766672504840000003796669317384771221_);}
</style>
<linearGradient id="SVGID_1_" gradientUnits="userSpaceOnUse" x1="0" y1="5547.6592" x2="0.7071" y2="5548.3662">
	<stop  offset="0" style="stop-color:#DEDFE3"/>
	<stop  offset="0.1783" style="stop-color:#DADBDF"/>
	<stop  offset="0.3611" style="stop-color:#CECFD3"/>
	<stop  offset="0.546" style="stop-color:#B9BCBF"/>
	<stop  offset="0.7324" style="stop-color:#9CA0A2"/>
	<stop  offset="0.9181" style="stop-color:#787D7E"/>
	<stop  offset="1" style="stop-color:#656B6C"/>
</linearGradient>
<g id="SKY">
	
		<linearGradient id="SVGID_00000069364526666097697990000003410791984517951405_" gradientUnits="userSpaceOnUse" x1="977.3069" y1="13155.207" x2="941.6483" y2="-131.7417">
		<stop  offset="0" style="stop-color:#EA691B"/>
		<stop  offset="0.1044" style="stop-color:#EAB28D"/>
		<stop  offset="0.2928" style="stop-color:#CFD6DF"/>
		<stop  offset="0.4641" style="stop-color:#27AAE1"/>
		<stop  offset="0.5473" style="stop-color:#218FCE"/>
		<stop  offset="0.6192" style="stop-color:#1C75BC"/>
		<stop  offset="0.8098" style="stop-color:#662D91"/>
		<stop  offset="1" style="stop-color:#000000"/>
	</linearGradient>
	
		<rect x="-29.9" y="-129.1" style="fill:url(#SVGID_00000069364526666097697990000003410791984517951405_);" width="1978.7" height="13281.7"/>
</g>
<g id="BACKGROUND">
	<path class="st1" d="M1887.1,12441.6c-2.8-0.3-5.7-0.2-8.4-0.7c-1.6-0.3-3.1-1.1-4.7-1.4c-5.3-1-11.2-0.9-16.6-1.2
		c-11.2-0.8-22.5-1.4-33.7-1.7c-30.2-0.9-60.7,0.6-90,8.2c-8.7,2.3-17.5,5.1-26.5,4.6c-9.2-0.5-17.9-4.5-26.2-8.5
		c-9.3-4.6-18.4-10.1-28.2-13.6c-1.5-0.5-3-1.2-4.3-2.1c-7-4.8-13.2-10.1-20.8-14c-20.6-10.4-45-13.8-67.4-7.7
		c-39.2,10.7-68.9,49.4-69.1,90c-25.3,4.4-47.1,24.6-53.5,49.5c-45.4,0.2-90.8,7.9-133.7,22.8c-5.5,1.9-11.6,3.9-17,1.8
		c-5.8-2.3-8.7-8.5-11.6-14c-18-33.7-54-56.1-91.9-61.1c-37.9-5-77,6.4-108.5,28c-6.8,4.7-13.6,9.9-21.6,12
		c-13.3,3.4-27-2.5-40.2-6.5c-34.9-10.6-72.4-7.9-108.8-5.1c-19.7,1.5-43.5,6-50.1,24.6c-23.2-6-46.4-12-69.6-18
		c-15.4-4-30.7-8-46.1-12c-7.7-2-15.3-4.2-23-6c-7.2-1.6-13.8,1.7-21-1.4c-12.5-5.2-23.6-13.2-36.5-17.6
		c-12.2-4.2-23.5-10-36.1-13.2c-12.7-3.2-26-6.5-38.6-2.9c-12.6,3.5-23.5,16.4-20,29c-12.8-2.6-26.8,1.8-35.8,11.2
		c-9,9.4-12.8,23.6-9.6,36.2c-17.4-10-36.7-16.6-56.6-19.4c-9.8-1.4-19.7-1.8-29.6-1.4c-4.7,0.2-10.2,0.1-14.7,1.4
		c-6.5,2-9.9,8.4-18.1,7.2c-4.9-0.7-8.6-4.5-12.1-7.9c-16-15.5-36.4-28-58.7-28.5c-22.3-0.5-45.7,14.4-49.3,36.3
		c-9.6-4.6-21.4-4.4-30.8,0.5c-14.6-14-38.8-16.6-56-6c5.4-27.6-4.9-57.8-26.1-76.4c-4.5-3.9-9.4-7.3-14.6-10.1
		c-10.9-5.8-23.2-9.1-35.6-9.7c-6.2-0.3-12.4,0.1-18.5,1.3c-3,0.6-6,1.8-9,2.2c-1.1,0.1-2.2-0.1-3.3-0.1c-7.2,0.1-14.8,2.3-21.9,3.6
		c-30.9,5.8-61.7,11.7-92.6,17.5v703l1980.9-10l0.3-697.5C1930.9,12450.5,1908.6,12443.7,1887.1,12441.6z"/>
</g>
<g id="GROUND_00000034050409008592999510000007736615091036976811_">
	<g>
		<defs>
			<rect id="SVGID_00000112622652670880703850000012337481618702809005_" x="-29.9" y="12045.8" width="1974.2" height="1129.4"/>
		</defs>
		<clipPath id="SVGID_00000098934709695506135760000009342493448847881644_">
			<use xlink:href="#SVGID_00000112622652670880703850000012337481618702809005_"  style="overflow:visible;"/>
		</clipPath>
		<g style="clip-path:url(#SVGID_00000098934709695506135760000009342493448847881644_);">
			<g>
				<g>
					<path class="st3" d="M220.2,12740.3c0.1-3.4,0.2-8.2,1.2-13.5c0.9-5.3,2.7-11.1,5.1-16.3c2.4-5.2,5.4-9.8,7.9-13
						c1.3-1.6,2.3-2.9,3.1-3.7c0.8-0.9,1.2-1.4,1.2-1.4s-0.6,0.4-1.6,1c-1,0.7-2.4,1.7-4.2,3c-3.4,2.6-7.8,6.6-11.7,11.6
						c-4,4.9-7.5,10.9-9.6,16.7c-2.3,5.8-3.2,11.4-3.3,15.4L220.2,12740.3z"/>
				</g>
				<g>
					<path class="st3" d="M216.2,12735.7c-5.3-5.1-17-12.6-28.1-17c-5.5-2.3-10.7-3.9-14.6-5c-3.8-1.1-6.3-1.6-6.3-1.6
						s2.2,1.1,5.5,3c3.3,1.9,7.7,4.6,12.2,7.9c9.1,6.4,17.8,15,22.6,19.6L216.2,12735.7z"/>
				</g>
				<g>
					<path class="st3" d="M204.2,12734.9c-5.9-3.3-18.4-6.2-28.8-5.5c-5.2,0.2-9.9,1-13.1,1.8c-3.3,0.8-5.2,1.5-5.2,1.5
						s2.1-0.1,5.4,0.1c3.3,0.2,7.7,0.6,12.3,1.7c9.4,1.9,18.5,6.6,23.3,9.2L204.2,12734.9z"/>
				</g>
				<g>
					<path class="st3" d="M972.7,12640.5c-3.7-3.4-12.4-7.6-20.3-9.3c-3.9-0.9-7.6-1.4-10.2-1.5c-2.6-0.2-4.3-0.1-4.3-0.1
						s6.1,2.4,11.9,6.3c6,3.8,11.4,9.2,14.4,11.9L972.7,12640.5z"/>
				</g>
				<g>
					<path class="st3" d="M973,12643.1c-0.9-4.4-2-13,0.4-20.6c1-3.8,2.7-7.2,4.2-9.6c0.7-1.2,1.4-2.2,1.9-2.8c0.5-0.7,0.7-1,0.7-1
						s-0.4,0.3-1.1,0.7c-0.7,0.5-1.7,1.2-3,2.1c-2.4,1.9-5.5,4.8-8.2,8.6c-2.7,3.7-4.8,8.2-5.9,12.6c-1.2,4.4-1.2,8.6-0.8,11.5
						L973,12643.1z"/>
				</g>
				<g>
					<path class="st3" d="M532.4,12661.9c-3.8-6.8-13.3-17.8-23.1-25.8c-4.8-4-9.6-7.4-13.1-9.7c-3.6-2.3-5.9-3.6-5.9-3.6
						s1.8,1.8,4.6,4.8c2.7,3,6.3,7.1,9.9,11.8c7.2,9.3,13.5,20.8,17,27.1L532.4,12661.9z"/>
				</g>
				<g>
					<path class="st3" d="M536.3,12662.1c-2.3-4.1-6.8-11.5-9.3-18.8c-2.6-7.2-3.3-13.8-3.3-13.8s-0.6,1.6-1.2,4.2
						c-0.6,2.6-1.3,6.2-1.4,10.3c-0.5,8.1,1.7,17.7,4.4,22.5L536.3,12662.1z"/>
				</g>
				<g>
					<path class="st3" d="M523.7,12654.6c-9.9-4.2-38.5-10.5-38.5-10.5s23.4,15.6,33.3,19.7L523.7,12654.6z"/>
				</g>
				<g>
					<path class="st3" d="M541.7,12666.8c0.7-2.8,1.5-6.7,3.3-10.9c1.7-4.3,4.2-8.8,7.2-12.7c3-4,6.4-7.3,9.2-9.5
						c1.4-1.1,2.5-2,3.4-2.6c0.8-0.6,1.3-0.9,1.3-0.9s-0.6,0.2-1.6,0.5c-1,0.3-2.4,0.9-4.2,1.6c-3.5,1.5-8.1,4-12.6,7.5
						c-4.5,3.4-8.7,7.8-11.8,12.4c-3.1,4.5-5,9.2-5.8,12.6L541.7,12666.8z"/>
				</g>
				<g>
					<path class="st3" d="M580.9,12668.5c-0.1-2.1-0.2-5.2,0.4-8.6c0.6-3.4,2-7.3,4-10.6c2-3.4,4.7-6.1,6.9-8
						c1.1-0.9,2.1-1.6,2.8-2.1c0.7-0.5,1.1-0.7,1.1-0.7s-0.5,0.1-1.3,0.4c-0.9,0.2-2.1,0.6-3.6,1.2c-2.9,1.1-6.9,3.1-10.6,6.2
						c-3.7,3-6.9,7-8.9,11.2c-2.1,4.2-2.8,8.4-2.7,11.5L580.9,12668.5z"/>
				</g>
				<g>
					<path class="st3" d="M585.6,12663c1.6-1.9,3.8-4.6,6.9-7.3c3-2.7,7-5.3,11.1-7.3c4.1-2,8.3-3.2,11.5-3.9
						c1.6-0.3,2.9-0.5,3.8-0.6c0.9-0.1,1.5-0.2,1.5-0.2s-0.5-0.1-1.4-0.3c-0.9-0.2-2.3-0.4-4-0.5c-3.4-0.3-8.2-0.3-13.4,0.6
						c-5.2,0.9-10.7,2.7-15.3,5.3c-4.6,2.5-8.3,5.6-10.4,8.1L585.6,12663z"/>
				</g>
				<g>
					<path class="st3" d="M676.3,12654.1c-1.5-3.5-6.5-8.9-11.8-12.2c-5.2-3.5-10.2-5-10.2-5s3.2,3.7,5.6,8.3
						c2.6,4.6,4.1,10,5.3,12.7L676.3,12654.1z"/>
				</g>
				<g>
					<path class="st3" d="M682,12655c0.5-3,1.7-9.1,5.5-13.8c1.8-2.4,4-4.4,5.8-5.7c0.9-0.6,1.7-1.2,2.3-1.5
						c0.6-0.3,0.9-0.5,0.9-0.5s-0.4,0-1.1,0.1c-0.7,0.1-1.7,0.2-2.9,0.5c-2.4,0.5-5.8,1.6-9.1,3.4c-3.3,1.8-6.6,4.5-8.9,7.4
						c-2.4,2.9-3.8,6.1-4.2,8.4L682,12655z"/>
				</g>
				<g>
					<path class="st3" d="M1093.3,12639.8c0.1-2.9,0.5-8.8,3.4-13.9c1.3-2.5,3.1-4.7,4.6-6.2c1.5-1.5,2.6-2.4,2.6-2.4
						s-1.4,0.3-3.7,1c-2.2,0.8-5.3,2.1-8.2,4.3c-2.9,2.1-5.7,4.9-7.5,7.9c-1.9,3-2.9,6.1-3.1,8.4L1093.3,12639.8z"/>
				</g>
				<g>
					<path class="st3" d="M1079.8,12636c1.6-3.7,0.3-15.2,0.3-15.2s-9.8,7.9-11.4,11.6L1079.8,12636z"/>
				</g>
				<g>
					<path class="st3" d="M1078,12634.6c-1.9-3.3-7.5-8.2-13.1-11.1c-5.5-3-10.6-4.3-10.6-4.3s3.5,3.5,6.4,7.9
						c3.1,4.4,5.2,9.7,6.8,12.3L1078,12634.6z"/>
				</g>
				<g>
					<path class="st3" d="M1067.2,12633.5c-3.6-2.7-11.7-5.9-18.8-7.3c-7.1-1.5-13.1-1.5-13.1-1.5s5.3,2.5,10.6,6.2
						c5.4,3.6,10.7,8.3,13.7,10.6L1067.2,12633.5z"/>
				</g>
				<g>
					<path class="st3" d="M977.5,12642.8c4-5,9.6-20.9,9.6-20.9s-15.4,10.1-19.4,15L977.5,12642.8z"/>
				</g>
				<g>
					<path class="st3" d="M223.4,12740.1c2.7-3.8,6.8-11.3,10.8-17.7c3.9-6.4,7.6-11.8,7.6-11.8s-5.9,3.6-12.3,8.6
						c-6.5,4.9-13.3,11.4-16.2,15.4L223.4,12740.1z"/>
				</g>
				<g>
					<path class="st3" d="M1502.4,12692.2c-0.8-5.3-4.9-14.4-10.1-21.2c-2.5-3.4-5.2-6.4-7.2-8.4c-2-2-3.4-3.2-3.4-3.2
						s3.1,6.2,5.1,13.6c2.2,7.5,3.1,16.1,3.8,20.7L1502.4,12692.2z"/>
				</g>
				<g>
					<path class="st3" d="M1504.2,12693.6c0.8-3.2,1.2-9.2,2.4-14.5c1.1-5.3,2.7-9.9,2.7-9.9s-4.1,3.1-8.1,7.8
						c-4.1,4.6-7.7,10.7-8.6,14.4L1504.2,12693.6z"/>
				</g>
				<g>
					<path class="st3" d="M1508.9,12695.5c0.8-1.7,1.7-5.4,3.6-8.7c1.8-3.3,4.4-5.9,4.4-5.9s-4,0.2-8.5,2.1
						c-4.5,1.7-9.1,5.5-10.4,8.2L1508.9,12695.5z"/>
				</g>
				<g>
					<path class="st3" d="M1495.9,12688.2c-3.1-4.6-11-11.6-18.8-16.1c-3.9-2.3-7.7-4.1-10.4-5.2c-2.8-1.2-4.6-1.8-4.6-1.8
						s5.7,4.6,10.9,10.7c5.4,6.1,10,13.7,12.7,17.7L1495.9,12688.2z"/>
				</g>
				<g>
					<path class="st3" d="M1509.2,12698.8c5.4-2.9,15.5-8.4,25.4-11.5c4.9-1.7,9.6-2.8,13.1-3.5c3.5-0.7,5.8-1.1,5.8-1.1
						s-2.3-0.3-5.9-0.5c-3.7-0.2-8.8-0.3-14.3,0.1c-11.2,0.7-24,4.4-30.2,7.7L1509.2,12698.8z"/>
				</g>
				<g>
					<path class="st3" d="M1348.2,12669.8c1.1-2.1,2.7-6.5,5.5-10.1c2.7-3.6,6.4-6.2,6.4-6.2s-1.2,0-3,0.3c-1.9,0.3-4.4,0.9-7.1,1.9
						c-5.4,2-10.9,6.4-12.5,9.6L1348.2,12669.8z"/>
				</g>
				<g>
					<path class="st3" d="M1348.2,12672.1c3.7-1,11.5-8.4,11.5-8.4s-11.3-2.4-15-1.4L1348.2,12672.1z"/>
				</g>
				<g>
					<path class="st3" d="M1341.9,12667.5c-1.4-3.5-4.2-8.2-8.2-12.6c-4-4.5-9.1-8.6-14.4-11.8c-5.2-3.2-10.6-5.3-14.5-6.5
						c-2-0.6-3.6-1-4.7-1.3c-1.1-0.3-1.7-0.4-1.7-0.4s0.6,0.3,1.5,0.8c1,0.5,2.4,1.3,4,2.3c3.3,2,7.6,5.1,11.4,8.9
						c3.9,3.8,7.4,8.3,9.9,12.6c2.6,4.3,4.2,8.4,5.4,11.2L1341.9,12667.5z"/>
				</g>
				<g>
					<path class="st3" d="M1331.2,12660.6c-4.4-3.1-13.8-7.2-22.2-9.5c-8.4-2.4-15.6-3.3-15.6-3.3s6.2,3.3,12.9,7.8
						c6.7,4.4,13.6,10.2,17.6,13L1331.2,12660.6z"/>
				</g>
				<g>
					<path class="st3" d="M1238.6,12653c1.2-2.2,2.8-6.7,5.3-10.6c2.3-3.9,5.3-7,5.3-7s-4.5,0.8-9.5,3.3c-5,2.4-10.1,6.6-11.7,9.6
						L1238.6,12653z"/>
				</g>
				<g>
					<path class="st3" d="M1236.3,12649.4c-0.9-2.7-4.3-7.1-7.9-10.1c-3.6-3.1-7.1-5-7.1-5s1.2,3.5,1.9,7.4c0.8,3.9,1,8.3,1.7,10.5
						L1236.3,12649.4z"/>
				</g>
			</g>
			
				<linearGradient id="SVGID_00000127019581079754504590000000123087243090796180_" gradientUnits="userSpaceOnUse" x1="-150.2378" y1="13025.7354" x2="2045.9695" y2="13025.7354">
				<stop  offset="0" style="stop-color:#96B02A"/>
				<stop  offset="0.4951" style="stop-color:#EAB28D"/>
				<stop  offset="0.9822" style="stop-color:#96B02A"/>
			</linearGradient>
			
				<ellipse style="fill:url(#SVGID_00000127019581079754504590000000123087243090796180_);" cx="947.9" cy="13025.7" rx="1098.1" ry="389.6"/>
			
				<linearGradient id="SVGID_00000032622565842157197920000015212800296880699529_" gradientUnits="userSpaceOnUse" x1="-150.2378" y1="13044.7354" x2="2045.9695" y2="13044.7354">
				<stop  offset="0" style="stop-color:#6C8220"/>
				<stop  offset="0.4951" style="stop-color:#96B02A"/>
				<stop  offset="0.9822" style="stop-color:#6C8220"/>
			</linearGradient>
			
				<ellipse style="fill:url(#SVGID_00000032622565842157197920000015212800296880699529_);" cx="947.9" cy="13044.7" rx="1098.1" ry="389.6"/>
			
				<linearGradient id="SVGID_00000122705786540800608590000005057585039235457199_" gradientUnits="userSpaceOnUse" x1="-150.2378" y1="13085.9473" x2="2045.9695" y2="13085.9473">
				<stop  offset="0" style="stop-color:#006838"/>
				<stop  offset="6.051289e-03" style="stop-color:#046937"/>
				<stop  offset="6.093924e-02" style="stop-color:#247130"/>
				<stop  offset="0.1206" style="stop-color:#3E772A"/>
				<stop  offset="0.1858" style="stop-color:#537C26"/>
				<stop  offset="0.2594" style="stop-color:#617F22"/>
				<stop  offset="0.3484" style="stop-color:#698121"/>
				<stop  offset="0.4951" style="stop-color:#6C8220"/>
				<stop  offset="0.64" style="stop-color:#698121"/>
				<stop  offset="0.7275" style="stop-color:#617F22"/>
				<stop  offset="0.7998" style="stop-color:#537C26"/>
				<stop  offset="0.8637" style="stop-color:#3E772A"/>
				<stop  offset="0.9222" style="stop-color:#247130"/>
				<stop  offset="0.9759" style="stop-color:#046937"/>
				<stop  offset="0.9822" style="stop-color:#006838"/>
			</linearGradient>
			
				<ellipse style="fill:url(#SVGID_00000122705786540800608590000005057585039235457199_);" cx="947.9" cy="13085.9" rx="1098.1" ry="389.6"/>
			
				<linearGradient id="SVGID_00000148650330440399867640000015806298599880523153_" gradientUnits="userSpaceOnUse" x1="182.9777" y1="12842.9209" x2="1704.1722" y2="12842.9209">
				<stop  offset="0" style="stop-color:#006838"/>
				<stop  offset="3.303276e-03" style="stop-color:#046937"/>
				<stop  offset="3.326549e-02" style="stop-color:#247130"/>
				<stop  offset="6.582967e-02" style="stop-color:#3E772A"/>
				<stop  offset="0.1014" style="stop-color:#537C26"/>
				<stop  offset="0.1416" style="stop-color:#617F22"/>
				<stop  offset="0.1902" style="stop-color:#698121"/>
				<stop  offset="0.2703" style="stop-color:#6C8220"/>
				<stop  offset="0.5505" style="stop-color:#96B02A"/>
				<stop  offset="0.6173" style="stop-color:#85A82C"/>
				<stop  offset="0.7491" style="stop-color:#5A9330"/>
				<stop  offset="0.9316" style="stop-color:#157236"/>
				<stop  offset="0.9822" style="stop-color:#006838"/>
			</linearGradient>
			<path style="opacity:0.5;fill:url(#SVGID_00000148650330440399867640000015806298599880523153_);" d="M1704.2,12904.3
				c0,107-122.4-52.2-634,25.7c-1041.4,158.6-1002.9-67.8-703.2-83.9c627.8-33.9,88.7-165.5,805.2-144.2
				C1469.3,12710.8,1704.2,12797.4,1704.2,12904.3z"/>
		</g>
	</g>
</g>
<g id="MOON" class="st8">
	<g class="st9">
		<circle class="st10" cx="1607.4" cy="5916.9" r="718.9"/>
		
			<linearGradient id="SVGID_00000016789378065668258370000012513269173990760123_" gradientUnits="userSpaceOnUse" x1="826.6971" y1="5165.8291" x2="1849.5328" y2="6176.3735">
			<stop  offset="0" style="stop-color:#E6E7E8"/>
			<stop  offset="1" style="stop-color:#808285"/>
		</linearGradient>
		<circle style="fill:url(#SVGID_00000016789378065668258370000012513269173990760123_);" cx="1620.7" cy="5950.3" r="718.9"/>
		
			<linearGradient id="SVGID_00000144325484680624183320000015275570332382318500_" gradientUnits="userSpaceOnUse" x1="1291.9714" y1="5537.0249" x2="2133.4026" y2="6613.5591">
			<stop  offset="0" style="stop-color:#E6E7E8"/>
			<stop  offset="1" style="stop-color:#808285"/>
		</linearGradient>
		<path style="fill:url(#SVGID_00000144325484680624183320000015275570332382318500_);" d="M2259.6,5638.6c-5.1,3.3-6.7,4.1-9.9,9.2
			c8.2,39.3,16.5,79,15.5,119.1c-0.2,8-0.9,16.3-4.6,23.4c-3.8,7.1-11.4,12.8-19.5,12.1c-7.7-0.7-13.7-6.7-18.5-12.6
			c-9.3-11.6-18.2-26.1-24.4-40.8c27.8,90.5,21,191-19.3,276.9c-8.7,18.4-19.8,37.3-38.2,46.5c-18.4,9.3-46.4,2.8-53.7-16.2
			c8.7,85.9-36.3,175-111.3,220.2c-23,13.9-49.8,24-76.6,21.1c-45.5-4.9-79.6-46.8-89.7-90.6c-10.1-43.9-4-95.9,4.7-140
			c-17.3,18.7-46.1,29.9-69.5,19.3c-17-7.7-27.5-24.7-33.8-42c-6.3-17.3-13.4-39.6-20.8-56.4c1.3,43.4,2.3,88.4-15.7,128.1
			c-18,39.6-60.9,71.9-104.2,63.5c-65.1-12.6-107.4-106.4-123.2-162.2c-18.2-64.1-20.6-131.4-22.9-197.9
			c-36.5,27.7-81.2,64.7-126.9,73.8c-7.1,1.4-78.6,15.9-81.5,1.2c6.7,34.3-5,61.4-32.2,84c17.1,72.2-12.3,147.9-64.4,201.4
			c-46.9-19.8-84.1-70.1-94.8-119.1c-32.3-30.2-52.1-72.1-59.7-115.3c-9.1,75.1-0.2,152.4,19.9,225.4c-9.2,8.2-13.9,16.5-16.8,28.3
			c7.1-1.2,15.9-4,22.3-1c1.9,9.6,6.7,17.4,8.6,27c-7.9,6.6-18.3,12.4-26.2,19c13.2,33.2,27.8,65.8,43.8,97.8
			c21.6,4.2,41.9,8.4,63.4,12.6c107.2,120.3,248.6,214.3,403.3,263.9c10,11,19.8,28.2,24.9,42.1c58.1,12,117.3,14.7,176.4,8.8
			c7.3-17.7,15.4-34.3,25.4-50.7c107.5-7.2,207.9-47,292.8-112.1c11.7,6.6,25,14.8,36.7,21.3c54.1-40.7,102.5-96.3,141.5-151.2
			c-6.4-8.2-9.8-16.7-16.2-24.9c84-141.4,136.5-347,121.2-475c9.3-26.8,23.8-58.1,41.5-80.5c-8.4-53.3-26.1-114.3-50.7-157
			C2272.1,5634.8,2264.7,5635.3,2259.6,5638.6z"/>
		<g>
			<path class="st13" d="M1300.7,6493.2c-18.8-14-49-62.4-1.3-55.1c43.2,6.7,83.9,28.4,113.1,60.5c3.2,3.5,6.5,7.8,5.8,12.6
				c-0.9,6.5-8.6,9.6-15.1,10.9C1364.5,6529.6,1330.9,6515.6,1300.7,6493.2z"/>
			<path class="st13" d="M1983.8,6449.3c1.2,3,0.1,6.4-1.1,9.4c-14.8,35.9-49.9,66.2-86.6,80.1c-36.5,13.8-69.5-16.6-31-44.5
				c31.5-22.9,65.3-46,104.2-50.2C1974.8,6443.6,1981.7,6444.2,1983.8,6449.3z"/>
			<path class="st13" d="M1244.1,6337c-4.6-7.7-8.3-18.1-2.7-25.1c4.5-5.7,17.2-7.5,24-6.8c-12.1-7.7-22-18.7-28.5-31.3
				c-2.1-4.2-3.9-9.2-2.1-13.5c1.7-4.1,6.2-6.6,10.6-7s8.9,0.7,13.2,2.1c19.9,6.6,38.3,17.7,53.2,32.3c3,3,6,6.4,6.6,10.5
				c0.8,6.7-5.5,12.6-12.2,13.9c-6.7,1.3-13.6-0.6-20.2-2.6c26.7,13,50.7,32.8,65.5,58.4c3.2,5.6,5.9,12.8,2.1,18
				c-2.3,3.2-6.4,4.5-10.3,5.3C1299.8,6400.1,1264.7,6371.5,1244.1,6337z"/>
			<path class="st13" d="M1641.8,6415.2c3.4-0.9,7.1-2.4,8.4-5.5c2-4.6-2.2-9.5-6.3-12.5c-12.9-9.4-28.7-14.4-44.7-15.9
				c-7.7-0.7-17.2,0.3-20.6,7.1c-1.9,3.8-1.2,8.5,1.1,12C1591.5,6418.6,1623.2,6420.1,1641.8,6415.2z"/>
		</g>
		<path class="st14" d="M1377.2,5456.1c-6.6,4.7-11.2,11-8.4,18.7c3,8.3,14,9.9,22.9,9.6c32.4-0.9,64.6-7.4,94.6-19.1
			c6.2-2.4,16.3-6.9,15.7-15c-0.5-6.3-7.3-10.9-12.2-13.7c-8.8-5.1-18-6.5-27.9-7.9c-6.4-0.9-12.8-1.1-19.2-0.7
			c-2.5,0.2-17.1,0.6-18,2.9c1.6-3.8,5.5-6,8.7-8.7c3.2-2.6,6.1-6.8,4.5-10.7c-1.3-3.1-4.9-4.6-8.1-5.4c-14.4-3.7-29.5-1.8-44.1,0.4
			c-16,2.4-32,5.3-47.3,10.5c-15.3,5.2-30,12.7-41.7,23.6c-3.8,3.5-7.4,7.8-7.4,12.9c0,4.6,3.1,8.9,7,11.3c4,2.5,8.7,3.4,13.3,3.8
			c15,1.2,29.8-2.7,43.9-7.6c14.1-4.9,27.8-10.9,42.5-14C1390.8,5448.8,1383.2,5451.8,1377.2,5456.1z"/>
		<path class="st14" d="M1785.4,5329.5c3.7,3.1,7.4,6.8,7.1,11.5c-0.5,7.9-11.4,11.4-20,12.6c-48.5,6.8-97.8,6.9-145.6,0.3
			c-14.3-2-42.7-12.8-28.5-29.1c17.2-19.8,62.3-30.3,88.1-30C1722.9,5295.2,1759.1,5307.6,1785.4,5329.5z"/>
		<path class="st15" d="M1554.3,6033.6c6.3,11.2,15.5,22.9,28.5,23.8c16.2,1.1,27.7-15.3,33.2-30.4c16-44.3,10.1-95.7-15.6-135.4
			c-5.9-9-12.9-17.7-22.2-23.3c-9.3-5.6-21.2-7.9-31.3-3.9c-28.5,11.3-21.2,52.8-20.6,76.7
			C1526.9,5973.4,1538.3,6005.5,1554.3,6033.6z"/>
		<path class="st14" d="M1039.9,5774.7c-0.5,3.1-0.7,6.9,2,8.7c3.2,2.1,7.4-0.7,10.1-3.4c11.2-11.5,20.3-24.9,26.9-39.5
			c3.4-7.4,6.1-15.1,8.1-23c0.3-1.3,4.5-20.8,2.3-20.4c-16.3,3-22.1,18.9-30.3,30.8C1049.2,5741.9,1042.8,5757.9,1039.9,5774.7z"/>
	</g>
</g>
<g id="MARS" class="st8">
	<g class="st9">
		<circle class="st16" cx="510.6" cy="1945.2" r="986.4"/>
		
			<linearGradient id="SVGID_00000132062503567157133970000013775636962845219484_" gradientUnits="userSpaceOnUse" x1="-1241.7645" y1="2535.918" x2="161.6342" y2="3922.4524" gradientTransform="matrix(0.5652 0.8249 -0.8249 0.5652 3549.0518 69.9842)">
			<stop  offset="0" style="stop-color:#E6E7E8"/>
			<stop  offset="1" style="stop-color:#808285"/>
		</linearGradient>
		<circle style="fill:url(#SVGID_00000132062503567157133970000013775636962845219484_);" cx="483.1" cy="1986.1" r="986.4"/>
		
			<linearGradient id="SVGID_00000085932167537853866740000015735432146220778927_" gradientUnits="userSpaceOnUse" x1="-603.3771" y1="3045.2234" x2="551.1226" y2="4522.2998" gradientTransform="matrix(0.5652 0.8249 -0.8249 0.5652 3549.0518 69.9842)">
			<stop  offset="0" style="stop-color:#E6E7E8"/>
			<stop  offset="1" style="stop-color:#808285"/>
		</linearGradient>
		<path style="fill:url(#SVGID_00000085932167537853866740000015735432146220778927_);" d="M1331.4,2467.5c-7.6-3.2-9.9-4.4-18.1-4
			c-38.1,39.8-76.6,80-122.8,109.9c-9.2,6-19.1,11.6-30.1,12.9c-11,1.2-23.3-3-28.8-12.8c-5.2-9.2-3.1-20.7-0.1-30.7
			c5.9-19.6,15.4-40.9,27.3-59.3c-80.9,101.6-199.9,171.8-328.4,192.9c-27.6,4.5-57.5,6.5-82.3-7.2s-39.1-50.4-23.3-73.3
			c-90.5,76.5-226.2,94.7-335.5,44.8c-33.6-15.3-65.7-37.7-83.3-70.4c-29.8-55.3-8.8-126.4,33-171.9
			c41.8-45.5,105.4-78.8,162.1-103.3c-34.6-5.1-69.6-29-75.8-63.7c-4.5-25.1,6.6-50.4,21.3-70.9c14.7-20.5,34.5-45.9,47.7-67.3
			c-48.1,35.1-98.3,71.2-157.1,81.6c-58.8,10.4-128.6-13.1-152.7-68.7c-36.2-83.4,37.1-204.1,88-265.2
			c58.5-70.3,132.8-125.2,206.3-179.4c-59.6-19.8-136.3-41.7-182-86.4c-7.1-7-78.9-76.6-64.6-91.2c-33.7,34.2-73.4,41.9-120,28.7
			c-68.4,75.4-176.9,100.8-278,83.3c-14-68.5,14.1-149.6,61.3-199.7c9.1-60.1,41.2-114.9,84.2-157c-92,47.9-172.7,118-239.6,197.4
			c-16.5-4.1-29.4-2.9-45.1,3c6.8,7.1,16.9,14.8,18.4,24.5c-9.4,9.5-14.5,21.1-23.8,30.7c-13.6-3.8-28.3-11.1-41.8-14.9
			c-27.3,40.6-52.9,82.5-76.7,125.4c11.9,27.7,23,53.9,34.9,81.6c-53,214.6-49.8,447.6,14.1,661.2c-4.6,19.8-16.6,44.3-28.3,60.8
			c31.5,75.1,74.4,144.2,126.8,206.5c25.7-5.5,50.8-9.2,77.1-10.5c91.6,116.1,214.4,198.8,354,244.5c1.6,18.4,2.7,39.7,4.3,58.1
			c88,29.7,188.5,41.3,280.9,43c4.3-13.6,11.3-24.1,15.7-37.7c225.1-14.6,498.6-114.6,631.6-231.1c37.6-10.3,84.2-18.2,123.3-15.5
			c53.8-50.9,109.2-118.2,138.4-179.2C1345.4,2478.8,1339,2470.8,1331.4,2467.5z"/>
		<g>
			<path class="st13" d="M200,2784.1c-2.5,3.7-7.2,5.1-11.6,6c-52.1,11.1-113.6-5.1-157.9-35.9c-43.9-30.6-35.1-91.5,26.3-69.6
				c50.3,17.9,102.7,38.2,137.6,79.1C199.4,2769.4,204.1,2777.8,200,2784.1z"/>
			<path class="st13" d="M526.6,2834.4c27.3-2.7,54.8-6.2,81.1-14c13.6-4,26.7-9.3,39.4-15.6c5.1-2.6,23.2-20.8,25.9-20.5
				c-52.7-5.9-106.9,5.6-152.2,32.2c-4.9,2.9-10.4,7.9-8.2,13.3C514.7,2834.6,521.4,2834.9,526.6,2834.4z"/>
		</g>
		<path class="st14" d="M853.6,1327.3c-10.5-3.7-21.2-4.1-27.7,5c-7.1,9.8-0.3,23.5,6.8,33.4c26.1,36,58.4,67.3,95,92.2
			c7.5,5.1,20.5,13.1,29.2,6.1c6.7-5.4,6.6-16.7,6-24.5c-1.1-13.8-6.6-25.4-12.7-37.6c-3.9-7.9-8.7-15.4-14.1-22.4
			c-2.1-2.7-13.9-18.8-17.3-18.1c5.6-1.2,11.1,1.6,16.6,3.2c5.5,1.6,12.4,1.6,15.6-3.2c2.5-3.9,1.4-9.1-0.2-13.4
			c-7-19.1-20.8-34.8-34.6-49.5c-15.2-16.2-30.9-32.1-48.6-45.5s-37.6-24.1-59.1-28.9c-6.9-1.6-14.6-2.3-20.4,1.6
			c-5.2,3.6-7.7,10.4-7.4,16.8c0.3,6.4,2.9,12.5,6.1,18c10.2,17.9,26.2,31.6,42.7,43.8c16.5,12.1,33.9,23.1,48.8,37.2
			C872.4,1336.9,863.1,1330.7,853.6,1327.3z"/>
		<path class="st15" d="M1088.8,2323.3c-3.9,8.5-6.3,20.4,1.3,25.8c5.3,3.7,12.5,1.9,18.6-0.4c46-16.9,89.1-47.2,111.9-91.2
			c3.3-6.4,6.2-13.2,6.4-20.4c1.1-41.5-50.5-5.4-65.3,4.2C1130.2,2261.4,1104.4,2288.7,1088.8,2323.3z"/>
		<path class="st14" d="M1313.5,1691.1c-0.6,6.5-2,13.7-7.5,17c-9.3,5.5-21.8-4-29.8-12.8c-45.4-49.6-83.7-105.3-113.3-164.6
			c-8.9-17.7-18.6-58.3,10.8-54.9c35.8,4.1,82.6,47,102.3,76.4C1303.9,1593.7,1317.9,1644.4,1313.5,1691.1z"/>
		<path class="st15" d="M337.3,1975.6c-7.7,15.8-13.9,35.3-4.8,50.7c11.4,19.2,38.8,19.5,60.1,14c62.6-16.2,116.2-62.8,141.2-122.7
			c5.7-13.7,10-28.3,9.2-43.2c-0.8-14.9-7.5-30.1-19.9-38.5c-34.9-23.5-76.2,16.9-102.8,36.1
			C384.2,1897.9,356.7,1935.7,337.3,1975.6z"/>
		<path class="st14" d="M231.5,1192.6c-3.9,1.8-8.3,4.6-8.3,9c0.1,5.3,6.5,7.8,11.7,8.7c21.7,3.8,44,3.7,65.5-0.2
			c11-2,21.8-4.9,32.3-8.7c1.7-0.6,27-11,24.8-13.2c-16-16.1-38.5-10.3-58.4-10.4C275.7,1177.7,252.7,1182.8,231.5,1192.6z"/>
	</g>
	
		<linearGradient id="SVGID_00000132071429020782596640000013508296477445744306_" gradientUnits="userSpaceOnUse" x1="-504.0665" y1="1987.2343" x2="1467.0237" y2="1987.2343">
		<stop  offset="0" style="stop-color:#EF4136"/>
		<stop  offset="1" style="stop-color:#F7941D"/>
	</linearGradient>
	
		<circle style="display:inline;fill:url(#SVGID_00000132071429020782596640000013508296477445744306_);" cx="481.5" cy="1987.2" r="985.5"/>
</g>
</svg>
