<?xml version="1.0" encoding="utf-8"?>
<!-- Generator: Adobe Illustrator 27.8.1, SVG Export Plug-In . SVG Version: 6.00 Build 0)  -->
<svg version="1.1" id="Layer_1" xmlns="http://www.w3.org/2000/svg" xmlns:xlink="http://www.w3.org/1999/xlink" x="0px" y="0px"
	 viewBox="0 0 1024 2100" style="enable-background:new 0 0 1024 2100;" xml:space="preserve">
<style type="text/css">
	.Drop_x0020_Shadow{fill:none;}
	.Round_x0020_Corners_x0020_2_x0020_pt{fill:#FFFFFF;stroke:#231F20;stroke-miterlimit:10;}
	.Live_x0020_Reflect_x0020_X{fill:none;}
	.Bevel_x0020_Soft{fill:url(#SVGID_1_);}
	.Dusk{fill:#FFFFFF;}
	.Foliage_GS{fill:#FFDD00;}
	.Pompadour_GS{fill-rule:evenodd;clip-rule:evenodd;fill:#44ADE2;}
	.st0{fill:url(#SVGID_00000083790068576749533560000010329230329439171487_);}
	.st1{opacity:0.3;fill:#8B5E3C;}
	.st2{clip-path:url(#SVGID_00000020397411807685332400000017653702979195412364_);}
	.st3{fill:#EAB28D;}
	.st4{fill:url(#SVGID_00000043423709610817157340000007318750976576083345_);}
	.st5{fill:url(#SVGID_00000151511755237253463770000002966354478377113236_);}
	.st6{fill:url(#SVGID_00000157269270890108430120000002768518642583868806_);}
	.st7{opacity:0.5;fill:url(#SVGID_00000125575859227514760010000001288251547487021717_);}
</style>
<linearGradient id="SVGID_1_" gradientUnits="userSpaceOnUse" x1="0" y1="0" x2="0.7071" y2="0.7071">
	<stop  offset="0" style="stop-color:#DEDFE3"/>
	<stop  offset="0.1783" style="stop-color:#DADBDF"/>
	<stop  offset="0.3611" style="stop-color:#CECFD3"/>
	<stop  offset="0.546" style="stop-color:#B9BCBF"/>
	<stop  offset="0.7324" style="stop-color:#9CA0A2"/>
	<stop  offset="0.9181" style="stop-color:#787D7E"/>
	<stop  offset="1" style="stop-color:#656B6C"/>
</linearGradient>
<linearGradient id="SVGID_00000072270011638351640000000007960122270609812871_" gradientUnits="userSpaceOnUse" x1="503.8514" y1="2121.6487" x2="498.0227" y2="-50.1964">
	<stop  offset="0" style="stop-color:#EA691B"/>
	<stop  offset="0.1044" style="stop-color:#EAB28D"/>
	<stop  offset="0.3791" style="stop-color:#27AAE1"/>
	<stop  offset="0.4744" style="stop-color:#218FCE"/>
	<stop  offset="0.5566" style="stop-color:#1C75BC"/>
	<stop  offset="0.7593" style="stop-color:#452491"/>
	<stop  offset="1" style="stop-color:#000000"/>
</linearGradient>
<rect x="-31.2" y="-48.8" style="fill:url(#SVGID_00000072270011638351640000000007960122270609812871_);" width="1064.3" height="2169"/>
<path class="st1" d="M999.9,1882c-1.5-0.1-3-0.1-4.5-0.4c-0.9-0.1-1.7-0.6-2.5-0.7c-2.9-0.6-6-0.5-8.9-0.7c-6-0.4-12.1-0.7-18.1-0.9
	c-16.2-0.5-32.6,0.3-48.4,4.4c-4.7,1.2-9.4,2.8-14.2,2.5c-5-0.3-9.6-2.4-14.1-4.6c-5-2.5-9.9-5.5-15.2-7.3c-0.8-0.3-1.6-0.7-2.3-1.2
	c-3.8-2.6-7.1-5.4-11.2-7.5c-11.1-5.6-24.2-7.4-36.2-4.1c-21.1,5.8-37.1,26.6-37.2,48.4c-13.6,2.4-25.4,13.2-28.8,26.6
	c-24.4,0.1-48.8,4.2-71.9,12.3c-3,1-6.2,2.1-9.2,1c-3.1-1.2-4.7-4.6-6.3-7.5c-9.7-18.1-29.1-30.2-49.4-32.9
	c-20.4-2.7-41.4,3.5-58.4,15c-3.7,2.5-7.3,5.3-11.6,6.4c-7.2,1.8-14.5-1.3-21.6-3.5c-18.8-5.7-38.9-4.3-58.5-2.8
	c-10.6,0.8-23.4,3.2-27,13.3c-12.5-3.2-24.9-6.5-37.4-9.7c-8.3-2.1-16.5-4.3-24.8-6.4c-4.1-1.1-8.2-2.3-12.4-3.2
	c-3.8-0.9-7.4,0.9-11.3-0.7c-6.7-2.8-12.7-7.1-19.6-9.5c-6.6-2.3-12.6-5.4-19.4-7.1c-6.8-1.7-14-3.5-20.8-1.6
	c-6.8,1.9-12.7,8.8-10.8,15.6c-6.9-1.4-14.4,0.9-19.3,6c-4.9,5.1-6.9,12.7-5.2,19.5c-9.3-5.4-19.8-8.9-30.4-10.4
	c-5.3-0.7-10.6-1-15.9-0.7c-2.5,0.1-5.5,0-7.9,0.8c-3.5,1.1-5.3,4.5-9.8,3.9c-2.6-0.4-4.6-2.4-6.5-4.2c-8.6-8.3-19.6-15.1-31.6-15.3
	c-12-0.2-24.6,7.7-26.5,19.5c-5.2-2.5-11.5-2.4-16.6,0.3c-7.8-7.5-20.9-8.9-30.1-3.2c2.9-14.9-2.6-31.1-14-41.1
	c-2.4-2.1-5.1-3.9-7.9-5.4c-5.9-3.1-12.5-4.9-19.1-5.2c-3.3-0.2-6.7,0.1-9.9,0.7c-1.6,0.3-3.2,1-4.8,1.2c-0.6,0.1-1.2-0.1-1.8,0
	c-3.9,0.1-8,1.2-11.8,1.9c-16.6,3.1-33.2,6.3-49.8,9.4v378.1l1065.4-5.4l0.2-375.2C1023.4,1886.8,1011.5,1883.2,999.9,1882z"/>
<g>
	<defs>
		<rect id="SVGID_00000027570005639038791440000008652781647570489008_" x="-31.2" y="1669.1" width="1061.8" height="607.5"/>
	</defs>
	<clipPath id="SVGID_00000059305297401386706880000007219426156741068170_">
		<use xlink:href="#SVGID_00000027570005639038791440000008652781647570489008_"  style="overflow:visible;"/>
	</clipPath>
	<g style="clip-path:url(#SVGID_00000059305297401386706880000007219426156741068170_);">
		<g>
			<g>
				<path class="st3" d="M103.3,2042.7c0.1-1.8,0.1-4.4,0.6-7.3c0.5-2.9,1.4-6,2.8-8.8c1.3-2.8,2.9-5.3,4.2-7c0.7-0.9,1.2-1.5,1.7-2
					c0.4-0.5,0.6-0.7,0.6-0.7s-0.3,0.2-0.8,0.6c-0.6,0.4-1.3,0.9-2.2,1.6c-1.8,1.4-4.2,3.5-6.3,6.2c-2.1,2.7-4,5.8-5.2,9
					c-1.2,3.1-1.7,6.1-1.8,8.3L103.3,2042.7z"/>
			</g>
			<g>
				<path class="st3" d="M101.2,2040.2c-2.9-2.8-9.2-6.8-15.1-9.1c-3-1.2-5.8-2.1-7.8-2.7c-2.1-0.6-3.4-0.8-3.4-0.8s1.2,0.6,2.9,1.6
					c1.8,1,4.1,2.5,6.5,4.2c4.9,3.4,9.6,8,12.1,10.5L101.2,2040.2z"/>
			</g>
			<g>
				<path class="st3" d="M94.7,2039.8c-3.2-1.8-9.9-3.3-15.5-3c-2.8,0.1-5.3,0.6-7.1,1c-1.8,0.4-2.8,0.8-2.8,0.8s1.1,0,2.9,0
					c1.8,0.1,4.2,0.3,6.6,0.9c5,1,10,3.5,12.5,4.9L94.7,2039.8z"/>
			</g>
			<g>
				<path class="st3" d="M508,1989c-2-1.8-6.7-4.1-10.9-5c-2.1-0.5-4.1-0.7-5.5-0.8c-1.4-0.1-2.3-0.1-2.3-0.1s3.3,1.3,6.4,3.4
					c3.2,2.1,6.1,5,7.8,6.4L508,1989z"/>
			</g>
			<g>
				<path class="st3" d="M508.2,1990.4c-0.5-2.4-1.1-7,0.2-11.1c0.6-2,1.5-3.9,2.2-5.2c0.4-0.6,0.7-1.2,1-1.5
					c0.3-0.4,0.4-0.6,0.4-0.6s-0.2,0.1-0.6,0.4c-0.4,0.2-0.9,0.6-1.6,1.1c-1.3,1-3,2.6-4.4,4.6c-1.4,2-2.6,4.4-3.2,6.8
					c-0.6,2.4-0.7,4.6-0.4,6.2L508.2,1990.4z"/>
			</g>
			<g>
				<path class="st3" d="M271.2,2000.5c-2-3.6-7.1-9.6-12.4-13.9c-2.6-2.2-5.2-4-7.1-5.2c-1.9-1.2-3.2-1.9-3.2-1.9s1,1,2.5,2.6
					c1.5,1.6,3.4,3.8,5.3,6.4c3.9,5,7.3,11.2,9.2,14.6L271.2,2000.5z"/>
			</g>
			<g>
				<path class="st3" d="M273.3,2000.6c-1.2-2.2-3.7-6.2-5-10.1c-1.4-3.9-1.8-7.4-1.8-7.4s-0.3,0.8-0.6,2.2
					c-0.3,1.4-0.7,3.3-0.8,5.5c-0.3,4.3,0.9,9.5,2.4,12.1L273.3,2000.6z"/>
			</g>
			<g>
				<path class="st3" d="M266.6,1996.6c-5.3-2.2-20.7-5.7-20.7-5.7s12.6,8.4,17.9,10.6L266.6,1996.6z"/>
			</g>
			<g>
				<path class="st3" d="M276.3,2003.1c0.4-1.5,0.8-3.6,1.8-5.9c0.9-2.3,2.3-4.7,3.9-6.8c1.6-2.1,3.5-3.9,4.9-5.1
					c0.7-0.6,1.4-1.1,1.8-1.4c0.5-0.3,0.7-0.5,0.7-0.5s-0.3,0.1-0.8,0.3c-0.6,0.2-1.3,0.5-2.3,0.9c-1.9,0.8-4.4,2.1-6.8,4
					c-2.4,1.8-4.7,4.2-6.4,6.7c-1.7,2.4-2.7,4.9-3.1,6.8L276.3,2003.1z"/>
			</g>
			<g>
				<path class="st3" d="M297.3,2004.1c0-1.1-0.1-2.8,0.2-4.6c0.3-1.9,1.1-3.9,2.2-5.7c1.1-1.8,2.5-3.3,3.7-4.3
					c0.6-0.5,1.1-0.9,1.5-1.1c0.4-0.3,0.6-0.4,0.6-0.4s-0.3,0.1-0.7,0.2c-0.5,0.1-1.1,0.3-1.9,0.6c-1.6,0.6-3.7,1.7-5.7,3.3
					c-2,1.6-3.7,3.8-4.8,6c-1.1,2.2-1.5,4.5-1.4,6.2L297.3,2004.1z"/>
			</g>
			<g>
				<path class="st3" d="M299.9,2001.1c0.9-1,2-2.5,3.7-3.9c1.6-1.5,3.7-2.9,6-3.9c2.2-1.1,4.5-1.7,6.2-2.1c0.9-0.2,1.6-0.3,2.1-0.3
					c0.5-0.1,0.8-0.1,0.8-0.1s-0.3,0-0.8-0.1c-0.5-0.1-1.2-0.2-2.1-0.3c-1.8-0.2-4.4-0.2-7.2,0.3c-2.8,0.5-5.7,1.5-8.2,2.8
					c-2.5,1.3-4.4,3-5.6,4.4L299.9,2001.1z"/>
			</g>
			<g>
				<path class="st3" d="M348.6,1996.3c-0.8-1.9-3.5-4.8-6.3-6.6c-2.8-1.9-5.5-2.7-5.5-2.7s1.7,2,3,4.5c1.4,2.5,2.2,5.4,2.8,6.8
					L348.6,1996.3z"/>
			</g>
			<g>
				<path class="st3" d="M351.7,1996.8c0.2-1.6,0.9-4.9,3-7.4c1-1.3,2.2-2.4,3.1-3.1c0.5-0.3,0.9-0.6,1.2-0.8
					c0.3-0.2,0.5-0.3,0.5-0.3s-0.2,0-0.6,0.1c-0.4,0-0.9,0.1-1.6,0.3c-1.3,0.3-3.1,0.8-4.9,1.8c-1.8,1-3.5,2.4-4.8,4
					c-1.3,1.6-2,3.3-2.3,4.5L351.7,1996.8z"/>
			</g>
			<g>
				<path class="st3" d="M572.9,1988.7c0.1-1.6,0.3-4.8,1.8-7.4c0.7-1.3,1.7-2.5,2.5-3.3c0.8-0.8,1.4-1.3,1.4-1.3s-0.8,0.1-2,0.6
					c-1.2,0.4-2.8,1.2-4.4,2.3c-1.6,1.1-3,2.6-4,4.3c-1,1.6-1.6,3.3-1.7,4.5L572.9,1988.7z"/>
			</g>
			<g>
				<path class="st3" d="M565.6,1986.6c0.9-2,0.2-8.2,0.2-8.2s-5.3,4.2-6.2,6.2L565.6,1986.6z"/>
			</g>
			<g>
				<path class="st3" d="M564.7,1985.8c-1-1.8-4-4.4-7-6c-3-1.6-5.7-2.3-5.7-2.3s1.9,1.9,3.4,4.3c1.6,2.4,2.8,5.2,3.6,6.6
					L564.7,1985.8z"/>
			</g>
			<g>
				<path class="st3" d="M558.9,1985.3c-2-1.5-6.3-3.2-10.1-3.9c-3.8-0.8-7.1-0.8-7.1-0.8s2.8,1.4,5.7,3.3c2.9,1.9,5.7,4.5,7.4,5.7
					L558.9,1985.3z"/>
			</g>
			<g>
				<path class="st3" d="M510.6,1990.3c2.1-2.7,5.2-11.3,5.2-11.3s-8.3,5.4-10.4,8.1L510.6,1990.3z"/>
			</g>
			<g>
				<path class="st3" d="M105.1,2042.6c1.5-2.1,3.7-6.1,5.8-9.5c2.1-3.5,4.1-6.3,4.1-6.3s-3.2,1.9-6.6,4.6c-3.5,2.7-7.2,6.1-8.7,8.3
					L105.1,2042.6z"/>
			</g>
			<g>
				<path class="st3" d="M793,2016.8c-0.4-2.8-2.6-7.7-5.4-11.4c-1.4-1.9-2.8-3.4-3.9-4.5c-1.1-1.1-1.8-1.7-1.8-1.7s1.7,3.3,2.8,7.3
					c1.2,4,1.6,8.6,2,11.1L793,2016.8z"/>
			</g>
			<g>
				<path class="st3" d="M793.9,2017.5c0.4-1.7,0.7-4.9,1.3-7.8c0.6-2.9,1.4-5.3,1.4-5.3s-2.2,1.7-4.4,4.2c-2.2,2.5-4.2,5.8-4.6,7.7
					L793.9,2017.5z"/>
			</g>
			<g>
				<path class="st3" d="M796.5,2018.6c0.5-0.9,0.9-2.9,2-4.7c1-1.8,2.4-3.2,2.4-3.2s-2.1,0.1-4.6,1.1c-2.4,0.9-4.9,3-5.6,4.4
					L796.5,2018.6z"/>
			</g>
			<g>
				<path class="st3" d="M789.4,2014.6c-1.7-2.5-5.9-6.3-10.1-8.7c-2.1-1.2-4.1-2.2-5.6-2.8c-1.5-0.6-2.5-0.9-2.5-0.9
					s3.1,2.5,5.9,5.8c2.9,3.3,5.4,7.4,6.8,9.5L789.4,2014.6z"/>
			</g>
			<g>
				<path class="st3" d="M796.6,2020.3c2.9-1.6,8.3-4.5,13.7-6.2c2.6-0.9,5.2-1.5,7.1-1.9c1.9-0.4,3.1-0.6,3.1-0.6s-1.2-0.2-3.2-0.3
					c-2-0.1-4.7-0.2-7.7,0.1c-6,0.4-12.9,2.3-16.2,4.2L796.6,2020.3z"/>
			</g>
			<g>
				<path class="st3" d="M710,2004.8c0.6-1.1,1.4-3.5,3-5.4c1.5-2,3.4-3.3,3.4-3.3s-0.6,0-1.6,0.2c-1,0.2-2.4,0.5-3.8,1
					c-2.9,1.1-5.9,3.4-6.7,5.2L710,2004.8z"/>
			</g>
			<g>
				<path class="st3" d="M710,2006c2-0.5,6.2-4.5,6.2-4.5s-6.1-1.3-8.1-0.8L710,2006z"/>
			</g>
			<g>
				<path class="st3" d="M706.6,2003.5c-0.8-1.9-2.2-4.4-4.4-6.8c-2.1-2.4-4.9-4.6-7.8-6.3c-2.8-1.7-5.7-2.8-7.8-3.5
					c-1.1-0.3-1.9-0.6-2.5-0.7c-0.6-0.1-0.9-0.2-0.9-0.2s0.3,0.2,0.8,0.4c0.5,0.3,1.3,0.7,2.2,1.2c1.8,1.1,4.1,2.7,6.1,4.8
					c2.1,2,4,4.4,5.3,6.8c1.4,2.3,2.3,4.5,2.9,6L706.6,2003.5z"/>
			</g>
			<g>
				<path class="st3" d="M700.9,1999.8c-2.4-1.7-7.4-3.9-12-5.1c-4.5-1.3-8.4-1.8-8.4-1.8s3.4,1.8,6.9,4.2c3.6,2.4,7.3,5.5,9.5,7
					L700.9,1999.8z"/>
			</g>
			<g>
				<path class="st3" d="M651.1,1995.7c0.7-1.2,1.5-3.6,2.9-5.7c1.3-2.1,2.9-3.8,2.9-3.8s-2.4,0.5-5.1,1.8c-2.7,1.3-5.4,3.6-6.3,5.1
					L651.1,1995.7z"/>
			</g>
			<g>
				<path class="st3" d="M649.8,1993.8c-0.5-1.5-2.3-3.8-4.3-5.4c-1.9-1.7-3.8-2.7-3.8-2.7s0.6,1.9,1,4c0.4,2.1,0.6,4.5,0.9,5.6
					L649.8,1993.8z"/>
			</g>
		</g>
		
			<linearGradient id="SVGID_00000129893690969315043090000010617953698131140264_" gradientUnits="userSpaceOnUse" x1="-95.9338" y1="2196.2124" x2="1085.3169" y2="2196.2124">
			<stop  offset="0" style="stop-color:#96B02A"/>
			<stop  offset="0.4951" style="stop-color:#EAB28D"/>
			<stop  offset="0.9822" style="stop-color:#96B02A"/>
		</linearGradient>
		
			<ellipse style="fill:url(#SVGID_00000129893690969315043090000010617953698131140264_);" cx="494.7" cy="2196.2" rx="590.6" ry="209.6"/>
		
			<linearGradient id="SVGID_00000060032240209776155850000018191882614147453824_" gradientUnits="userSpaceOnUse" x1="-95.9338" y1="2206.4316" x2="1085.3169" y2="2206.4316">
			<stop  offset="0" style="stop-color:#6C8220"/>
			<stop  offset="0.4951" style="stop-color:#96B02A"/>
			<stop  offset="0.9822" style="stop-color:#6C8220"/>
		</linearGradient>
		
			<ellipse style="fill:url(#SVGID_00000060032240209776155850000018191882614147453824_);" cx="494.7" cy="2206.4" rx="590.6" ry="209.6"/>
		
			<linearGradient id="SVGID_00000003082110017194237070000011582065343267984061_" gradientUnits="userSpaceOnUse" x1="-95.9338" y1="2228.5977" x2="1085.3169" y2="2228.5977">
			<stop  offset="0" style="stop-color:#006838"/>
			<stop  offset="6.051289e-03" style="stop-color:#046937"/>
			<stop  offset="6.093924e-02" style="stop-color:#247130"/>
			<stop  offset="0.1206" style="stop-color:#3E772A"/>
			<stop  offset="0.1858" style="stop-color:#537C26"/>
			<stop  offset="0.2594" style="stop-color:#617F22"/>
			<stop  offset="0.3484" style="stop-color:#698121"/>
			<stop  offset="0.4951" style="stop-color:#6C8220"/>
			<stop  offset="0.64" style="stop-color:#698121"/>
			<stop  offset="0.7275" style="stop-color:#617F22"/>
			<stop  offset="0.7998" style="stop-color:#537C26"/>
			<stop  offset="0.8637" style="stop-color:#3E772A"/>
			<stop  offset="0.9222" style="stop-color:#247130"/>
			<stop  offset="0.9759" style="stop-color:#046937"/>
			<stop  offset="0.9822" style="stop-color:#006838"/>
		</linearGradient>
		
			<ellipse style="fill:url(#SVGID_00000003082110017194237070000011582065343267984061_);" cx="494.7" cy="2228.6" rx="590.6" ry="209.6"/>
		
			<linearGradient id="SVGID_00000163768078570159719610000002515678235820965549_" gradientUnits="userSpaceOnUse" x1="83.2893" y1="2097.884" x2="901.478" y2="2097.884">
			<stop  offset="0" style="stop-color:#006838"/>
			<stop  offset="3.303276e-03" style="stop-color:#046937"/>
			<stop  offset="3.326549e-02" style="stop-color:#247130"/>
			<stop  offset="6.582967e-02" style="stop-color:#3E772A"/>
			<stop  offset="0.1014" style="stop-color:#537C26"/>
			<stop  offset="0.1416" style="stop-color:#617F22"/>
			<stop  offset="0.1902" style="stop-color:#698121"/>
			<stop  offset="0.2703" style="stop-color:#6C8220"/>
			<stop  offset="0.5505" style="stop-color:#96B02A"/>
			<stop  offset="0.6173" style="stop-color:#85A82C"/>
			<stop  offset="0.7491" style="stop-color:#5A9330"/>
			<stop  offset="0.9316" style="stop-color:#157236"/>
			<stop  offset="0.9822" style="stop-color:#006838"/>
		</linearGradient>
		<path style="opacity:0.5;fill:url(#SVGID_00000163768078570159719610000002515678235820965549_);" d="M901.5,2130.9
			c0,57.5-65.8-28.1-341,13.8c-560.1,85.3-539.4-36.4-378.2-45.1c337.7-18.2,47.7-89,433.1-77.6
			C775.1,2026.8,901.5,2073.4,901.5,2130.9z"/>
	</g>
</g>
</svg>
