<?xml version="1.0" encoding="utf-8"?>
<!-- Generator: Adobe Illustrator 27.8.1, SVG Export Plug-In . SVG Version: 6.00 Build 0)  -->
<svg version="1.1" id="Layer_1" xmlns="http://www.w3.org/2000/svg" xmlns:xlink="http://www.w3.org/1999/xlink" x="0px" y="0px"
	 viewBox="0 0 309.4 550" style="enable-background:new 0 0 309.4 550;" xml:space="preserve">
<style type="text/css">
	.Drop_x0020_Shadow{fill:none;}
	.Round_x0020_Corners_x0020_2_x0020_pt{fill:#FFFFFF;stroke:#231F20;stroke-miterlimit:10;}
	.Live_x0020_Reflect_x0020_X{fill:none;}
	.Bevel_x0020_Soft{fill:url(#SVGID_1_);}
	.Dusk{fill:#FFFFFF;}
	.Foliage_GS{fill:#FFDD00;}
	.Pompadour_GS{fill-rule:evenodd;clip-rule:evenodd;fill:#44ADE2;}
	.st0{fill:#E8C6A4;}
	.st1{fill:#FFC5B3;}
	.st2{fill:#FFA08D;}
	.st3{fill:#361A17;}
	.st4{fill:#ED1C24;}
	.st5{fill:#F6DFC9;}
	.st6{fill:#44474E;}
	.st7{fill:#565961;}
</style>
<linearGradient id="SVGID_1_" gradientUnits="userSpaceOnUse" x1="-96.5645" y1="20.3294" x2="-95.8574" y2="21.0365">
	<stop  offset="0" style="stop-color:#DEDFE3"/>
	<stop  offset="0.1783" style="stop-color:#DADBDF"/>
	<stop  offset="0.3611" style="stop-color:#CECFD3"/>
	<stop  offset="0.546" style="stop-color:#B9BCBF"/>
	<stop  offset="0.7324" style="stop-color:#9CA0A2"/>
	<stop  offset="0.9181" style="stop-color:#787D7E"/>
	<stop  offset="1" style="stop-color:#656B6C"/>
</linearGradient>
<g>
	<path class="st0" d="M229.4,53.3c0,0,11.4,56.3,9.8,63.2c-1.6,7-22.6,13.3-24.8,0.8c-2.2-12.5,2.3-64.7,2.3-64.7
		S222.3,44.1,229.4,53.3z"/>
	<path class="st1" d="M229.4,53.3c0,0,11.4,56.3,9.8,63.2c-1.6,7-22.6,13.3-24.8,0.8c-2.2-12.5,2.3-64.7,2.3-64.7
		S222.3,44.1,229.4,53.3z"/>
	<path class="st1" d="M168.6,175.6c0,0,9.5-14.3,20.5-23.8c11-9.5,30.2-42.3,30.2-42.3s8.4-7.8,16.1-3.3c7.6,4.5,3.2,15-2.3,26.6
		c-7.3,15.3-38.5,61.9-38.5,61.9L168.6,175.6z"/>
	<path class="st0" d="M212.7,51.8c-1.1-1.8-1.9-3.7-2.2-5.7c-0.2-1.2-0.2-2.4-0.2-3.6c0-1.4,0-2.7,0.1-4.1c0.1-1.8,0.2-3.5,0.4-5.3
		c-0.5,1.2-0.9,1.9-1.1,1.5c-0.4-0.7-0.7-1.4-1-2.2c-0.2-0.8-0.3-1.5-0.4-2.3c-0.1-2.2-0.3-4.8-1.4-6.8c-0.3-0.6-0.8-1.2-1.5-1.5
		c-0.7-0.3-1.4,0-1.9,0.5c-2.9,3-1.5,13.2,0,16.7c2.2,5.2,5.3,10.5,9.8,14.1C213.2,52.6,212.9,52.2,212.7,51.8z"/>
	<path class="st2" d="M212.7,51.8c-1.1-1.8-1.9-3.7-2.2-5.7c-0.2-1.2-0.2-2.4-0.2-3.6c0-1.4,0-2.7,0.1-4.1c0.1-1.8,0.2-3.5,0.4-5.3
		c-0.5,1.2-0.9,1.9-1.1,1.5c-0.4-0.7-0.7-1.4-1-2.2c-0.2-0.8-0.3-1.5-0.4-2.3c-0.1-2.2-0.3-4.8-1.4-6.8c-0.3-0.6-0.8-1.2-1.5-1.5
		c-0.7-0.3-1.4,0-1.9,0.5c-2.9,3-1.5,13.2,0,16.7c2.2,5.2,5.3,10.5,9.8,14.1C213.2,52.6,212.9,52.2,212.7,51.8z"/>
	<path class="st1" d="M237.9,21.4c-0.3-0.4-0.8-0.9-1.4-0.8c-0.5,0.1-0.9,0.6-1.1,1.1c-0.7,1.3-1,2.9-1.2,4.3c-0.2,1-0.4,2-0.6,3
		c-0.3,1.1-0.7,2.1-1.1,3.2c-0.1,0.4-0.3,0.8-0.4,1.2c0.4-3.1-0.4-6.3-0.8-9.4c-0.3-2.4-0.6-4.9-1.4-7.1c-0.3-0.7-0.6-1.6-1.3-2.1
		c-0.7-0.5-1.4-0.1-1.9,0.5c-0.9,1.1-0.9,2.6-0.8,4c0,2-0.1,4-0.1,6c0,2-0.2,4-0.9,5.8c-0.2,0.6-0.5,1.2-1,1.7
		c-0.1,0.1-0.2,0.2-0.3,0.3c-1.2-1-1.3-2.8-1.3-4.2c0-1.7,0.1-3.4,0.2-5.1c0.1-2.2,0.2-4.4,0.3-6.6c0-1,0-2-0.2-2.9
		c-0.2-1.2-1-4.3-2.8-2.8c-0.5,0.5-0.9,1.1-1.3,1.7c-0.4,0.8-0.8,1.6-1.1,2.5c-0.6,1.8-1,3.7-1.4,5.6c-0.5,2.4-0.8,4.8-1,7.2
		c-0.1,1.2-0.2,2.3-0.3,3.5c0,0.5-0.1,1.1-0.1,1.6c0,0.2,0,0.4,0,0.6c-0.1-0.1-0.2-0.3-0.2-0.4c-0.3-0.5-0.5-1-0.6-1.5
		c-0.3-1-0.5-2-0.5-3.1c0-2.1,0.3-4.2,0.7-6.2c0.3-1.8,0.7-3.6,1.1-5.3c0.2-1.1,0.6-3.4-1-3.6c-0.6-0.1-1.2,0.4-1.6,0.8
		c-0.6,0.6-1,1.3-1.4,2c-0.9,1.7-1.4,3.5-1.9,5.3c-0.5,1.8-1.1,3.6-1.5,5.5c-0.3,1.8-0.5,3.5-0.4,5.3c0,0.4,0,0.9,0,1.4
		c0.1,0.9,0.2,1.8,0.4,2.7c0.4,2.7,0.9,5.3,1.5,7.9c0.5,2.4,1,4.9,2.1,7.1c1.4,2.7,3.6,4.7,6,6.6c1.1,0.3,2.1,0.5,3.3,0.7
		c3,0.3,6.2,0,8.6-1.7c4.2-3,5.2-8.9,6.3-13.6c1.4-6.2,2.9-12.3,3.3-18.6C238.7,24.1,238.7,22.5,237.9,21.4z"/>
	<g>
		<g>
			<path class="st3" d="M82.1,511.7C82,511.7,82,511.7,82.1,511.7c-0.3,0.5-0.5,1-0.7,1.5c-0.3,1.5,0.3,3,1.2,4.2
				c1.2,1.7,2.8,3,4.4,4.2c2,1.4,4.1,2.6,6.2,3.6c2.2,1,4.4,1.9,6.7,2.7c1.9,0.6,3.9,1.2,5.9,1.5c1.1,0.2,2.2,0.2,3.4,0.2
				c2.4,0,4.8-0.1,7.2-0.2c4.5-0.2,9-0.3,13.5,0.4c1.7,0.3,3.4,0.6,5.2,0.9c0.3,0,0.7,0.1,1,0.1c2,0.2,3.9,0.6,5.9,0.6
				c1.7,0,3.6-0.3,4.9-1.4c1.4-1.1,2-2.8,2.5-4.4c0.5-1.8,0.6-3.7,0.9-5.6c0.1-0.9,0.3-1.8,0.4-2.7c0.2-1.3,0.3-2.6,0.3-3.8
				c0-1-0.1-2.2-0.6-3.1c-0.5-0.8-1.2-1.1-2.1-1c-1.7,0.2-3,1.2-4.8,0.9c-2.2-0.4-4.5-1.7-5.1-4c-0.4-1.6-0.5-3.4-2-4.5
				c-1.8-1.4-4.3-0.6-6.1,0.7c-2.3,1-4.5,2.1-6.8,3C120.8,506.1,84.2,510.4,82.1,511.7z"/>
			<path class="st4" d="M147.3,515.9c0.9,1,2,1.6,3.2,1.9c0-0.2,0.1-0.4,0.1-0.7c0.2-1.3,0.3-2.6,0.3-3.8c0-1-0.1-2.2-0.6-3.1
				c-0.5-0.8-1.2-1.1-2.1-1c-1,0.1-2,0.5-2.9,0.8C145.3,512,145.9,514.3,147.3,515.9z"/>
			<path class="st4" d="M134.6,527.5c-1.3-0.3-2.6-0.6-4-0.9c-1.9-0.4-3.8-0.7-5.7-0.9c-4-0.3-8-0.1-12-0.4
				c-4.3-0.2-8.7-0.8-12.9-1.9c-4.2-1-8.6-2.5-12-5.3c-1.4-1.2-2.6-2.6-3.2-4.4c-0.3-0.9-0.4-1.8-0.3-2.7c-1.3,0.3-2.2,0.5-2.5,0.6
				c0,0-0.1,0-0.1,0.1c-0.3,0.4-0.5,0.9-0.6,1.4c-0.3,1.5,0.3,3,1.2,4.2c1.2,1.7,2.8,3,4.4,4.2c2,1.4,4.1,2.6,6.2,3.6
				c2.2,1,4.4,1.9,6.7,2.7c1.9,0.6,3.9,1.2,5.9,1.5c1.1,0.2,2.2,0.2,3.4,0.2c2.4,0,4.8-0.1,7.2-0.2c4.5-0.2,9-0.3,13.5,0.4
				c1.7,0.3,3.4,0.6,5.2,0.9c0.3,0,0.7,0.1,1,0.1c2,0.2,3.9,0.6,5.9,0.6c1.7,0,3.6-0.3,4.9-1.4c0.6-0.5,1-1,1.4-1.6
				C143.9,529.3,138.9,528.4,134.6,527.5z"/>
		</g>
		<path class="st2" d="M245,241.2c0,0,5.1-3.1,11.2-1.2c6.1,1.9,0,46.3-1,57.7c-1,11.5-13,67.1-13,67.1s-3.5,11.4-8.5,11.1
			c-5-0.3-12.4-8.6-8.2-14.6c4.2-6-0.4-81.3-0.4-81.3L245,241.2z"/>
		<path class="st2" d="M107.3,422.6l-0.9,4.6l30.1,78.4c0,0,5.6,10.7,11.8,3.6c0,0,8.5-23.7,0.5-59.6c-8-35.9-12.4-31.1-12.4-31.1
			L107.3,422.6z"/>
		<path class="st2" d="M113.3,305.2l-4,3.1c0,0-18.3,57.3-2.9,118.9c0,0,2.2,11.2,15.4,11.7c0,0,13.3,0,16.1-11.7
			c2.7-11.7,25.5-91.2,24.2-92.8C160.6,332.9,113.3,305.2,113.3,305.2z"/>
		<path class="st5" d="M101.5,360.5c3.7,3.9,8.3,6.9,13.1,9.3c5.1,2.5,10.6,4.3,16.2,5.5c5.5,1.2,11.1,1.8,16.8,1.7
			c1.7,0,2.4-0.1,4.1-0.2c5.3-22,10.9-41.6,10.3-42.3c-1.4-1.6-48.7-29.2-48.7-29.2l-4,3.1c0,0-5.9,21.7-8.2,51.7
			C101.2,360.2,101.4,360.3,101.5,360.5z"/>
		<path class="st6" d="M103,377.6c4.5,2.9,9.4,5.1,14.5,6.6c5.2,1.5,10.6,2.2,16.1,2.3c5.4,0,10.8-0.7,16-2.1
			c0.6-0.2,5-17.5,5.6-17.7c4.2-17.6,7.3-31.6,6.8-32.2c-1.4-1.6-48.7-29.2-48.7-29.2l-4,3.1c0,0-9.3,37-11.8,65
			C99.2,374.9,101.1,376.3,103,377.6z"/>
		<path class="st1" d="M177.8,274.4c0,0,45.8-44.9,65-44.4c0,0,15.2-0.4,16.8,15c1.8,17.8-45.8,69.1-62.6,78
			S177.8,274.4,177.8,274.4z"/>
		<path class="st6" d="M236.6,266.3c-1.5-4.5-4.1-8.4-7.4-11.7c-3.2-3.3-7-6.1-11.2-7.7c-0.7-0.3-6.5-1.5-7.3-1.8
			c-16.1,10.2-35,27.3-35,27.3s4.4,59.5,21.2,50.7c6.9-3.6,25.1-19.7,38.5-33.9C235.5,288.3,239.5,275,236.6,266.3z"/>
		<path class="st1" d="M35.2,176.5c0,0-1.1,53.2,1.9,59.7c3.1,6.4,23.7,3.3,23.1-9.4C59.6,214.1,47.3,173,47.3,173
			S40.2,165.9,35.2,176.5z"/>
		<path class="st1" d="M109.5,175.1c0,0-9,3-19.9,12.6c-10.8,9.6-47.4,37.1-47.4,37.1s-8.6,5.2-5.1,13.4c3.5,8.2,9.5,6.9,21.2,1.4
			s52.9-28.9,52.9-28.9L109.5,175.1z"/>
		<path class="st2" d="M68.1,206.1c0.1,6.3,0.9,12.5,2.6,18.6c0.7,2.5,1.5,4.9,2.5,7.3c16.4-8.8,38.1-21.2,38.1-21.2l-1.8-35.7
			c0,0-9,3-19.9,12.6c-4.4,3.9-12.9,10.7-21.6,17.4C68.1,205.4,68.1,205.8,68.1,206.1z"/>
		<path class="st7" d="M117.6,279c0,0-10.4,25.5-8.7,37.9c1.8,12.4,15.5,24.6,44,24.3c0,0,7.9,0.3,16.3-3.1
			c8.4-3.5,27.1-8.6,35-23.2c7.8-14.6-18.7-42.7-18.7-42.7L117.6,279z"/>
		<g>
			<path class="st3" d="M292,342.5c-0.2-1.8-1-3.4-2.8-4.1c-2.1-0.8-4.6-0.3-6.7,0.3c-2.3,0.7-4.4,1.7-6.6,2.6
				c-2.6,1.1-5.1,2.4-7.6,3.7c-2.4,1.2-4.9,2.2-7.4,3.3c-2.2,0.9-4.5,1.9-6.9,2.1c-1.1,0.1-2.2,0-3.2-0.2c-0.8-0.8-1.7-1.4-2.7-1.9
				c-1.2-0.5-2.6-0.5-3.7,0.3c-0.1,0.1-0.2,0.2-0.3,0.3c0.1,0.6,0.2,1.2,0.1,1.9c-0.1,1.4-0.4,2.9-0.6,4.3c-0.4,2.1-1,4.2-2.4,5.8
				c-1.5,1.7-3.6,2.7-5.8,3.4c-2.1,0.6-4.5,1.1-6.6,0.7c-1.7-0.3-2.9-1.4-4.1-2.4c-0.3,0.4-0.5,0.9-0.6,1.4
				c-0.4,1.4-0.5,2.8-0.6,4.2c-0.2,2.1-0.4,4.2-0.5,6.3c-0.1,1.4-0.1,2.9,0,4.3c0,0.5,0.1,1,0.1,1.4c0,0.1,0,0.1,0.1,0.2
				c0,0.4,0,0.8,0,1.2c0.2,1.7,0.5,3.4,0.9,5.1c1.8,3.2,6.6,3.9,10,3.8c5.4-0.1,10.6-2.2,15.1-5c5-3.1,9.8-6.6,14.7-9.9
				c8.6-5.7,18.1-11.1,23.7-20c1.3-2.1,2.4-4.4,3.2-6.8C291.6,346.6,292.2,344.5,292,342.5z"/>
			<path class="st4" d="M292,342.5c-0.1-1.6-0.8-3.1-2.3-3.8c0.7,1.8,0.3,4.1-0.3,5.9c-0.9,2.9-2.3,5.6-3.9,8.1
				c-2.3,3.4-5.3,6.4-8.4,9.2c-3.6,3.2-7.4,6-11.4,8.7c-5,3.4-10.1,6.7-15.5,9.5c-2.9,1.5-5.8,2.8-8.9,3.8c-2.8,1-5.8,1.7-8.8,1.8
				c-2.6,0.1-5.3-0.3-7.5-1.7c-0.6-0.4-1.2-0.8-1.7-1.4c0.2,1.3,0.4,2.6,0.8,3.9c1.8,3.2,6.6,3.9,10,3.8c5.4-0.1,10.6-2.2,15.1-5
				c5-3.1,9.8-6.6,14.7-9.9c8.6-5.7,18.1-11.1,23.7-20c1.3-2.1,2.4-4.4,3.2-6.8C291.6,346.6,292.2,344.5,292,342.5z"/>
			<path class="st4" d="M225,373.5c1.5,0.8,3.4,1,4.9,0.2c1.4-0.7,2.3-1.9,2.7-3.3c0.6-1.7,0.7-3.7,0.5-5.5
				c-1.4,0.3-2.9,0.3-4.3,0.1c-1.7-0.3-2.9-1.4-4.1-2.4c-0.3,0.4-0.5,0.9-0.6,1.4c-0.4,1.4-0.5,2.8-0.6,4.2
				c-0.1,1.4-0.3,2.9-0.4,4.3C223.7,372.8,224.3,373.1,225,373.5z"/>
		</g>
		<path class="st1" d="M57.3,156.3c0-1.5-0.1-3,0-4.5c0-1.4,0-2.8-0.3-4.1c-0.4-1.3-1.1-2.5-1.9-3.6c-0.6-0.8-1.2-1.5-1.8-2.4
			c-0.4-0.6-0.8-1.6-1.5-1.8c-0.5-0.2-1.2-0.1-1.7,0.2c-1,0.8-0.9,2.4-0.8,3.5c0.1,1.3,0.5,2.6,0.8,3.9c0.5,1.8,0.8,3.7,0.7,5.6
			c0,1-0.2,2-0.7,2.9c-0.4,0.8-1,1.7-1.8,2.1c-1.1-1.2-1.6-2.7-2-4.2c-0.6-2.1-1.1-4.2-1.6-6.3c-0.5-2.4-1.1-4.8-1.6-7.2
			c-0.2-1.2-0.4-2.5-0.7-3.7c-0.2-0.8-0.3-1.7-0.6-2.5c-0.6-1.6-2.8-5.5-5-4c-1.3,0.9-1.4,2.7-1.4,4.1c0,1.8,0.4,3.5,0.5,5.2
			c0.1,1.2,0,2.5,0.1,3.7c0.1,1.2,0.2,2.4,0.4,3.6c0.3,1.6,0.7,3.2,1.1,4.8c-0.2-0.2-0.3-0.5-0.5-0.7c-0.7-1.2-1.4-2.4-1.9-3.7
			c-0.6-1.4-1.2-2.9-1.5-4.4c-0.6-3.1-1-6.2-2-9.2c-0.4-1.2-0.8-2.5-1.6-3.4c-0.8-0.8-1.9-0.7-2.5,0.3c-0.4,0.7-0.6,1.6-0.7,2.4
			c-0.1,0.9-0.1,1.7-0.1,2.6c0,2.7,0.6,5.3,1.1,7.9c0.6,3.1,0.8,6.3,1.5,9.4c0.3,1.3,0.7,2.5,1.1,3.7c-0.1-0.1-0.1-0.3-0.2-0.4
			c-0.4-0.9-0.8-1.9-1.4-2.8c-0.6-1.1-1.3-2.1-1.9-3.2c-1.2-2.1-2.2-4.2-3-6.4c-0.6-1.8-1.2-3.8-2.6-5.1c-0.8-0.7-1.8-0.8-2.5,0
			c-0.7,0.9-0.8,2.1-0.9,3.2c-0.1,1.1-0.1,2.3,0,3.4c0.1,0.9,0.3,1.7,0.5,2.6c0.3,1.3,0.7,2.6,1.2,3.9c0.9,2.6,2,5.1,3,7.7
			c0.3,0.6,0.5,1.2,0.8,1.8c-0.2-0.2-0.3-0.4-0.5-0.7c-1.7-2.6-3-5.4-4.5-8.1c-0.6-1.1-2.3-4.4-3.8-2.3c-0.7,1.1-0.8,2.5-0.6,3.7
			c0.2,1.5,0.6,2.9,1.1,4.3c0.5,1.4,1,2.8,1.7,4.1c0.7,1.4,1.6,2.8,2.5,4.2c0.9,1.4,1.8,2.7,2.6,4.1c0.8,1.4,1.7,2.7,2.6,4
			c1.8,2.4,4.1,4.3,6.9,5.5c2.6,1.1,5.5,1.4,8.2,1c2.8-0.4,5.7-1.6,7.9-3.4c1.2-0.9,2.1-2,2.8-3.4c0.3-0.6,0.6-1.2,0.9-1.9
			c0.1-0.1,0.1-0.2,0.2-0.3c1.6-2.3,3.2-4.8,4.2-7.5C57,162,57.4,159.2,57.3,156.3z"/>
		<path class="st4" d="M192.2,197.6l28.8-32.1c0.1-6.8,0.3-11.8-2.5-18.2c0,0-11.5-19.7-17.2-14.7c-7.8,6.7-10.8,11.2-22.5,19.4
			c0,0-39.3,4.3-76.4,23.4c-5.4,3.2-14,9.6-30.1,24.5c0,0-2.2,20.3,9.2,34.3l22.9-6.9c1.7,22.8,5.3,36.9,10.4,59.3
			c20.7,19.9,61.3,16.6,71.3-11.7C191.3,252.4,193.7,222.5,192.2,197.6z"/>
	</g>
	<g>
		<path class="st1" d="M138.5,82.6c3.6,1.1,18.2-5.9,28.5,16.8c9.1,20.1,3.3,33.3-0.6,36.3c-2.1,1.7-10.8,4.1-10.8,4.1
			s-1.8,13.9,2.9,16.4c-1.4,6.7-7.7,12.1-18.9,15.1c-10.7,2.9-16.4-4.7-16.4-4.7s7.5-12.3,3.3-23.7c-5.2-14.1-16.7-33.1-15.3-41.7
			C113.7,85.6,128.7,79.5,138.5,82.6z"/>
		<path class="st2" d="M117.4,137c0,0,11.6,7.1,25.1,2c13.6-5.1,9.6,27.1,9.6,27.1s-7.1,6.2-16.4,6.2c-3.4,0-12.2-1.5-12.6-5.6
			c-0.1-1.4,1.3-6,2.4-11.6S117.4,137,117.4,137z"/>
		<path class="st3" d="M130.1,144.2c0,0-24.1-2.7-31.6-25.7c-5.9-17.9-4.4-28.4,5.1-32.6c0-14.9,22.8-16.1,25.6-16.5
			c2.8-0.4,13.2-3.2,15.9-8.7c2,2.5,3.8,5.1,0.4,10c2.8,0.8,11.3,0.2,15.6-2.9c2,1.1,1.7,7.5-3.3,11.3c1.4,1.3,5.2,2.1,8.9-0.9
			c2.3,4.8-3.2,14.6-8.5,18.3c-1.5,12.7-6.8,27.2-14.3,36.1C133.8,144.3,130.1,144.2,130.1,144.2z"/>
		<path class="st1" d="M158.9,111.1c0,0-9.7-8.8-9.2,2.6c0.4,10.6,10.4,11.4,10.4,11.4L158.9,111.1z"/>
		<path class="st3" d="M95.9,108.4c0,0,1.1,11,1.9,19.6c0.8,8.6,5,12.8,7.1,16.6c2.2,3.8,3.1,9.5,2.2,11.2c2.8-0.2,4.1-4.1,4.1-4.1
			s2,5,4.4,7.2c1.8,1.7,5.4,2.6,5.4,2.6s-1.6-7.6,2-10.5c1.7,1.2,2.8,5.3,2.1,9.3c3.4-1.8,4.8-3.7,6.4-9.8c1.2,3.6,6.3,9.3,7.3,7.9
			c-1.8-3.2,4.3-9.5,10.2-17.3c5.6-7.5,2.5-21.3,2.5-21.3L95.9,108.4z"/>
	</g>
</g>
</svg>
