<?xml version="1.0" encoding="UTF-8"?><svg id="Layer_2" xmlns="http://www.w3.org/2000/svg" viewBox="0 0 189.06 90.86"><defs><style>.cls-1{fill:#fff;opacity:.3;stroke-width:0px;}</style></defs><g id="clouds"><path class="cls-1" d="m88.96.36c-40.17-2.87-30.99,11.86-37.76,35.58-6.78,23.72-55.91,3.39-50.82,28.8,4.16,20.81,20.33-5.93,44.05,7.62,23.72,13.55,22.02,26.26,42.35,12.71,20.33-13.55,23.72-46.07,30.49-20.66,6.78,25.41,16.94,29.13,28.8,5.41,11.86-23.72,23.72-1.69,33.88-13.55,10.16-11.86,15.25-35.58-3.39-23.72-18.64,11.86-30.49,16.94-32.19,1.69-1.69-15.25-20.33-22.02-28.8-15.25S112.67,2.05,88.96.36Z"/></g></svg>