<?xml version="1.0" encoding="UTF-8"?><svg id="Layer_2" xmlns="http://www.w3.org/2000/svg" viewBox="0 0 445.96 174.75"><defs><style>.cls-1{fill:#fff;opacity:.3;stroke-width:0px;}</style></defs><g id="clouds"><path class="cls-1" d="m245.47,2.85c-36.99,12.35-33.07,41.02-54.44,48.77-21.37,7.74-60.47-11.05-62.05,19.36-1.45,28.01,13.93,62.72-15.88,40.48-29.81-22.24-50.45,23.11-83.91,17.51s-41.45,19.05-6.5,26.53c34.94,7.48,81.52-26.31,108.28,7.51,26.76,33.82,50.25-21.43,72.52-22.25,22.27-.82.51,10.29,33.57,19.26,33.07,8.97,70.45-19.08,101.63-8.62,31.19,10.46,40.42,33.71,67.81,18.14,27.4-15.57,74.17-51.05-2.28-97.48-76.46-46.44-54.32,12.43-77.1,2.95-22.77-9.48-24.88-91.13-81.66-72.16Z"/></g></svg>