<?xml version="1.0" encoding="utf-8"?>
<!-- Generator: Adobe Illustrator 27.8.1, SVG Export Plug-In . SVG Version: 6.00 Build 0)  -->
<svg version="1.1" id="Layer_1" xmlns="http://www.w3.org/2000/svg" xmlns:xlink="http://www.w3.org/1999/xlink" x="0px" y="0px"
	 viewBox="0 0 500 500" style="enable-background:new 0 0 500 500;" xml:space="preserve">
<style type="text/css">
	.st0{fill:url(#SVGID_1_);}
</style>
<linearGradient id="SVGID_1_" gradientUnits="userSpaceOnUse" x1="26.4" y1="198.6" x2="440.1" y2="198.6">
	<stop  offset="0" style="stop-color:#006838"/>
	<stop  offset="6.051289e-03" style="stop-color:#046937"/>
	<stop  offset="6.093924e-02" style="stop-color:#247130"/>
	<stop  offset="0.1206" style="stop-color:#3E772A"/>
	<stop  offset="0.1858" style="stop-color:#537C26"/>
	<stop  offset="0.2594" style="stop-color:#617F22"/>
	<stop  offset="0.3484" style="stop-color:#698121"/>
	<stop  offset="0.4951" style="stop-color:#6C8220"/>
	<stop  offset="0.64" style="stop-color:#698121"/>
	<stop  offset="0.7275" style="stop-color:#617F22"/>
	<stop  offset="0.7998" style="stop-color:#537C26"/>
	<stop  offset="0.8637" style="stop-color:#3E772A"/>
	<stop  offset="0.9222" style="stop-color:#247130"/>
	<stop  offset="0.9759" style="stop-color:#046937"/>
	<stop  offset="0.9822" style="stop-color:#006838"/>
</linearGradient>
<path class="st0" d="M432.1,111.5c-5.2,1.7-12.5,4.6-21.5,8.4c-17.7,7.8-41.6,20.4-64.4,38.2c-23,17.5-44.7,40.1-60.4,63.4
	c-5.3,7.7-10,15.6-14,23.2c-11-19.9-23.5-44.2-31.4-68.2c-13.3-36.8-16.7-70.6-16.7-70.6s-2.8,8-6.1,21.3
	c-3.2,13.2-6.6,31.8-7.4,52.5c-0.4,5.7-0.5,11.5-0.3,17.3c-18.5-20-39.3-39.9-60.5-57c-24.6-20.6-49-37.7-67.2-49.5S52.2,72,52.2,72
	s9.4,9.2,23.4,24.4s32.4,36.4,50.4,60.4c14.4,18.6,28.2,39,40.6,58.8c-61.9-17.7-140.2-35.1-140.2-35.1s87.4,58.2,144.4,88.5
	c-44.4,5.2-74.3,14.9-74.3,26.1c0,16.6,66.1,30.1,147.6,30.1s147.6-13.5,147.6-30.1c0-10.8-27.7-20.2-69.4-25.5
	c2.6-9,5.7-18.9,9.9-29.1c8.5-21.8,21.4-45,36.9-65.1c15.2-20.3,32.9-37.2,46.9-48.8c7.1-5.7,13-10.3,17.4-13.2
	c4.3-3,6.7-4.7,6.7-4.7S437.2,109.7,432.1,111.5z"/>
</svg>
