<?xml version="1.0" encoding="utf-8"?>
<!-- Generator: Adobe Illustrator 27.8.1, SVG Export Plug-In . SVG Version: 6.00 Build 0)  -->
<svg version="1.1" id="Layer_1" xmlns="http://www.w3.org/2000/svg" xmlns:xlink="http://www.w3.org/1999/xlink" x="0px" y="0px"
	 viewBox="0 0 500 500" style="enable-background:new 0 0 500 500;" xml:space="preserve">
<style type="text/css">
	.Drop_x0020_Shadow{fill:none;}
	.Round_x0020_Corners_x0020_2_x0020_pt{fill:#FFFFFF;stroke:#231F20;stroke-miterlimit:10;}
	.Live_x0020_Reflect_x0020_X{fill:none;}
	.Bevel_x0020_Soft{fill:url(#SVGID_1_);}
	.Dusk{fill:#FFFFFF;}
	.Foliage_GS{fill:#FFDD00;}
	.Pompadour_GS{fill-rule:evenodd;clip-rule:evenodd;fill:#44ADE2;}
	.st0{fill-rule:evenodd;clip-rule:evenodd;fill:#6D6E71;}
	.st1{fill-rule:evenodd;clip-rule:evenodd;fill:#58595B;}
	.st2{fill:#E6E7E8;}
	.st3{fill:url(#SVGID_00000015337099008853753370000002702847532273134221_);}
	.st4{fill:url(#SVGID_00000089545800189758882120000005987308857951334793_);}
	.st5{fill-rule:evenodd;clip-rule:evenodd;fill:url(#SVGID_00000030469950429428717010000013014188965366357139_);}
	.st6{fill:url(#SVGID_00000049919540734066566620000008719593908324454277_);}
	.st7{fill:url(#SVGID_00000077293737073529741910000009784754706554689983_);}
	.st8{fill-rule:evenodd;clip-rule:evenodd;fill:#A7A9AC;}
	.st9{opacity:0.71;fill-rule:evenodd;clip-rule:evenodd;fill:#D1D3D4;}
	.st10{fill-rule:evenodd;clip-rule:evenodd;fill:#203850;}
	.st11{opacity:0.5;fill-rule:evenodd;clip-rule:evenodd;fill:url(#SVGID_00000103262819861073263550000011359058449324061588_);}
	.st12{opacity:0.5;fill-rule:evenodd;clip-rule:evenodd;fill:url(#SVGID_00000103950684403658711580000003608747435523286147_);}
	.st13{fill-rule:evenodd;clip-rule:evenodd;fill:url(#SVGID_00000171701352020854024000000001766319509901502083_);}
	.st14{opacity:0.2;fill-rule:evenodd;clip-rule:evenodd;fill:url(#SVGID_00000067208770102151066670000015393853545274750889_);}
	.st15{fill-rule:evenodd;clip-rule:evenodd;fill:#FFFFFF;}
	.st16{fill-rule:evenodd;clip-rule:evenodd;fill:#E6E7E8;}
	.st17{opacity:0.5;fill:url(#SVGID_00000124849231996277399600000004085128646188992388_);}
	.st18{opacity:0.5;fill:url(#SVGID_00000025429397522251723110000015758044816132390040_);}
	.st19{opacity:0.35;}
	.st20{fill:#4D4D4D;}
	.st21{fill:url(#SVGID_00000075124382541755887360000017659563099578001816_);}
	.st22{fill:url(#SVGID_00000013888456807058721280000016298957036155771323_);}
	.st23{fill:#A97C50;}
	.st24{opacity:0.1;}
	.st25{opacity:0.3;fill:#FFC800;}
	.st26{fill:#8B5E3C;}
	.st27{opacity:5.000000e-02;}
	.st28{fill:#FFC800;}
	.st29{opacity:0.3;}
	.st30{fill-rule:evenodd;clip-rule:evenodd;fill:url(#SVGID_00000159442203416420015800000016617939266420466582_);}
</style>
<linearGradient id="SVGID_1_" gradientUnits="userSpaceOnUse" x1="0" y1="0" x2="0.7071" y2="0.7071">
	<stop  offset="0" style="stop-color:#DEDFE3"/>
	<stop  offset="0.1783" style="stop-color:#DADBDF"/>
	<stop  offset="0.3611" style="stop-color:#CECFD3"/>
	<stop  offset="0.546" style="stop-color:#B9BCBF"/>
	<stop  offset="0.7324" style="stop-color:#9CA0A2"/>
	<stop  offset="0.9181" style="stop-color:#787D7E"/>
	<stop  offset="1" style="stop-color:#656B6C"/>
</linearGradient>
<path class="st0" d="M140.9,208.4c50-18.6,176.7,8.1,196.2,41.7c9.1,15.7,12.3,73-3.5,114.2c-15.8,41.1-55.9,86.1-111.7,77.5
	s-117.7-63.8-116.2-198.3C105.8,233.1,120.4,216,140.9,208.4z"/>
<path class="st1" d="M130.5,200c50-18.6,176.7,8.1,196.2,41.7c9.1,15.7,12.3,73-3.5,114.2c-15.8,41.1-55.9,86.1-111.7,77.5
	c-55.8-8.6-117.7-63.8-116.2-198.3C95.4,224.8,110,207.6,130.5,200z"/>
<g>
	
		<ellipse transform="matrix(0.985 -0.1725 0.1725 0.985 -42.8444 44.5531)" class="st2" cx="234.9" cy="268.7" rx="220.6" ry="126.8"/>
	
		<linearGradient id="SVGID_00000026163542776587476320000018180998382539593370_" gradientUnits="userSpaceOnUse" x1="100.4908" y1="125.653" x2="304.1421" y2="326.8571" gradientTransform="matrix(0.5447 0.8386 -0.8386 0.5447 323.2812 -95.9528)">
		<stop  offset="0" style="stop-color:#E6E7E8"/>
		<stop  offset="1" style="stop-color:#808285"/>
	</linearGradient>
	<path style="fill:url(#SVGID_00000026163542776587476320000018180998382539593370_);" d="M329.1,376.1
		c-106.9,45.2-238.9,36.4-294.8-19.8S19.6,218,126.4,172.8s238.9-36.4,294.8,19.8S436,330.9,329.1,376.1z"/>
	
		<ellipse transform="matrix(0.985 -0.1725 0.1725 0.985 -43.8743 44.1555)" class="st2" cx="232.1" cy="274.5" rx="220.6" ry="126.8"/>
	
		<linearGradient id="SVGID_00000048460382462541074670000016664563740126598281_" gradientUnits="userSpaceOnUse" x1="552.0826" y1="302.1582" x2="182.805" y2="200.3455" gradientTransform="matrix(-0.9782 -0.2079 0.2079 -0.9782 444.4843 541.6005)">
		<stop  offset="0" style="stop-color:#E6E7E8"/>
		<stop  offset="1" style="stop-color:#808285"/>
	</linearGradient>
	<path style="fill:url(#SVGID_00000048460382462541074670000016664563740126598281_);" d="M22.8,254.2
		c36-71.7,158.5-123.5,273.7-115.8s179.3,72.1,143.3,143.8S281.2,405.7,166.1,398C50.9,390.3-13.2,325.9,22.8,254.2z"/>
</g>
<linearGradient id="SVGID_00000043435677473750750290000004584776320742200989_" gradientUnits="userSpaceOnUse" x1="409.1022" y1="202.52" x2="434.4986" y2="182.7636" gradientTransform="matrix(-1 0 0 1 500.3754 0)">
	<stop  offset="0" style="stop-color:#6D6E71"/>
	<stop  offset="0.1603" style="stop-color:#7F8083"/>
	<stop  offset="0.5139" style="stop-color:#A0A2A4"/>
	<stop  offset="0.8065" style="stop-color:#B5B6B9"/>
	<stop  offset="1" style="stop-color:#BCBEC0"/>
</linearGradient>
<path style="fill-rule:evenodd;clip-rule:evenodd;fill:url(#SVGID_00000043435677473750750290000004584776320742200989_);" d="
	M49.7,245.2l88.4-77c0,0,3.3-6.6-4.8-17.3c-8.1-10.7-18.1-8.9-18.1-8.9l-88.4,77c0,0-5.6,9.6,1.9,19.7S49.7,245.2,49.7,245.2z"/>
<g>
	<g>
		<g>
			
				<linearGradient id="SVGID_00000083071954039441138250000007407550005570724532_" gradientUnits="userSpaceOnUse" x1="34.3449" y1="81.2055" x2="159.2318" y2="81.2055" gradientTransform="matrix(-0.9987 5.109705e-02 5.109705e-02 0.9987 485.8515 -4.5232)">
				<stop  offset="1.576968e-02" style="stop-color:#F7941D"/>
				<stop  offset="0.278" style="stop-color:#FF5F5F"/>
				<stop  offset="0.399" style="stop-color:#EA5052"/>
				<stop  offset="0.6645" style="stop-color:#C13439"/>
				<stop  offset="0.8739" style="stop-color:#A7222A"/>
				<stop  offset="1" style="stop-color:#9E1C24"/>
			</linearGradient>
			<path style="fill:url(#SVGID_00000083071954039441138250000007407550005570724532_);" d="M386.8,143.6c0,0,46.3,21.4,71.8-1.7
				c25.4-23.1,9.7-59.4,25-70.5c0,0-22,5.3-22.3,23.5c-0.3,18.2-27.1,7.6-16.3-12.7c10.7-20.3,60.7-35.5,51.9-78.9
				c0,0-18.7,42.7-31.7,28.9c0,0-1.9-8.4,7.6-10.6c0,0-11.5-12.9-35.9,17.2c-24.4,30.1-41.6,27.8-40.7,7.4
				c0.8-20.4,23.8-19.3,23.8-19.3s-72.1-17.2-60.6,76.8c0,0,5.8-18.1,14.2-24.3c0,0,8.2,14.5,5.1,21.4c0,0,41.5-14.8,51.4-33.5
				c0,0-15.2,39.2-34,49.9c0,0,11.2,5.3,19.9,0.6C415.9,117.7,405.9,141.6,386.8,143.6z"/>
			
				<linearGradient id="SVGID_00000166670134961795475610000011908555795391502010_" gradientUnits="userSpaceOnUse" x1="93.6256" y1="120.3688" x2="136.638" y2="120.3688" gradientTransform="matrix(-0.9987 5.109705e-02 5.109705e-02 0.9987 485.8515 -4.5232)">
				<stop  offset="1.576968e-02" style="stop-color:#F7941D"/>
				<stop  offset="0.278" style="stop-color:#FF5F5F"/>
				<stop  offset="0.399" style="stop-color:#EA5052"/>
				<stop  offset="0.6645" style="stop-color:#C13439"/>
				<stop  offset="0.8739" style="stop-color:#A7222A"/>
				<stop  offset="1" style="stop-color:#9E1C24"/>
			</linearGradient>
			<path style="fill:url(#SVGID_00000166670134961795475610000011908555795391502010_);" d="M359.3,141.6c0,0,32.2-0.8,38.2-12.9
				c0,0-10.1-7.1-17.2-1.9c0,0,7.5-17.8,17.2-25.3c0,0-26.6,9.5-32.2,21.7c0,0,6.6-10.8,4.5-20.2
				C369.8,102.9,347.6,119.5,359.3,141.6z"/>
		</g>
	</g>
	<path class="st8" d="M320.9,180.3c0,0,31.7,9.3,54.1-12.1c20.1-19.3-0.8-68.4-29.6-63.5c-10.1,1.7-23.8,7.5-32.5,24
		C304.1,145.2,320.9,180.3,320.9,180.3z"/>
	<path class="st9" d="M312.8,128.7c8.3-15.7,21-21.7,31-23.8c0,0.9,0,1.7,0.1,2.6c1.2,23.2,16.8,41.3,34.9,40.4
		c1.4-0.1,2.8-0.3,4.1-0.6c0,8-2.5,15.5-8,20.8c-22.4,21.4-54.1,12.1-54.1,12.1S304.1,145.2,312.8,128.7z"/>
	<path class="st10" d="M339.3,109.1c1.6-0.5,3.2-0.8,4.6-1.1c26.6-4.5,45.9,40.8,27.3,58.6c-0.6,0.6-1.2,1.1-1.8,1.6
		C386.4,146.5,367.8,104.2,339.3,109.1z"/>
	
		<radialGradient id="SVGID_00000018195139588861230900000003227568976908571526_" cx="232.7832" cy="-106.6977" r="127.8723" gradientTransform="matrix(-0.5219 2.670332e-02 2.670332e-02 0.5219 483.8859 193.5718)" gradientUnits="userSpaceOnUse">
		<stop  offset="0" style="stop-color:#FFFFFF"/>
		<stop  offset="1" style="stop-color:#623964"/>
	</radialGradient>
	
		<path style="opacity:0.5;fill-rule:evenodd;clip-rule:evenodd;fill:url(#SVGID_00000018195139588861230900000003227568976908571526_);" d="
		M375,139.8c-3.1-7.8-7.5-15.6-12.5-23.3c0,0,5.1,4.5,8.7,11.9C374.6,135.3,375,139.8,375,139.8z"/>
	
		<radialGradient id="SVGID_00000024695448598170904910000003930935068897087162_" cx="211.7949" cy="-138.1544" r="67.9585" gradientTransform="matrix(-0.5219 2.670332e-02 2.670332e-02 0.5219 483.8859 193.5718)" gradientUnits="userSpaceOnUse">
		<stop  offset="0" style="stop-color:#FFFFFF"/>
		<stop  offset="1" style="stop-color:#623964"/>
	</radialGradient>
	
		<path style="opacity:0.5;fill-rule:evenodd;clip-rule:evenodd;fill:url(#SVGID_00000024695448598170904910000003930935068897087162_);" d="
		M365.8,136c3.3,1.9,2.8-6.6-3-9.3C357.7,124.2,360.9,133.1,365.8,136z"/>
</g>
<radialGradient id="SVGID_00000134242745518598311640000006296260713202539403_" cx="641.5257" cy="-86.4423" r="304.2033" gradientTransform="matrix(-0.522 2.495453e-02 2.495453e-02 0.522 493.7507 184.4121)" gradientUnits="userSpaceOnUse">
	<stop  offset="5.586590e-03" style="stop-color:#2AEAFF"/>
	<stop  offset="0.1957" style="stop-color:#2DE9FE"/>
	<stop  offset="0.3577" style="stop-color:#38E6F9"/>
	<stop  offset="0.5095" style="stop-color:#49E1F1"/>
	<stop  offset="0.655" style="stop-color:#62D9E7"/>
	<stop  offset="0.7961" style="stop-color:#82CFD9"/>
	<stop  offset="0.9319" style="stop-color:#A9C4C8"/>
	<stop  offset="0.9903" style="stop-color:#BCBEC0"/>
</radialGradient>
<path style="fill-rule:evenodd;clip-rule:evenodd;fill:url(#SVGID_00000134242745518598311640000006296260713202539403_);" d="
	M135.9,292.1c50,18.6,176.7-8.1,196.2-41.7c9.1-15.7,12.3-73-3.5-114.2c-15.8-41.1-55.9-86.1-111.7-77.5S99.2,122.6,100.7,257.1
	C100.8,267.4,115.4,284.5,135.9,292.1z"/>
<path class="st9" d="M178,294.2c83.2-4,147.6-78.3,146.6-167.3c1.5,3.1,2.8,6.3,4,9.4c15.8,41.1,12.6,98.5,3.5,114.2
	c-19.4,33.5-146.1,60.2-196.2,41.7c-4-1.5-7.8-3.3-11.3-5.4C141.4,292.4,159.4,295.1,178,294.2z"/>
<linearGradient id="SVGID_00000111150936057986970370000015991264897834441106_" gradientUnits="userSpaceOnUse" x1="89.4062" y1="259.2408" x2="25.9571" y2="224.2977" gradientTransform="matrix(-0.8795 0.2602 0.2602 0.8794 274.5623 -118.4494)">
	<stop  offset="0" style="stop-color:#623964"/>
	<stop  offset="1" style="stop-color:#FFFFFF"/>
</linearGradient>
<path style="opacity:0.2;fill-rule:evenodd;clip-rule:evenodd;fill:url(#SVGID_00000111150936057986970370000015991264897834441106_);" d="
	M248.5,65.3c23.5,5.4,43.8,22.6,56.1,40.5c9.6,13.8,16.4,31.5,20.3,47.4c-12.8-5.1-30.5-18.6-46.8-36.7
	C260.3,96.6,249.2,76.8,248.5,65.3z"/>
<path class="st15" d="M288.1,88.8c3-4.9,18.8,15.7,18.5,20.4C306.4,113.9,284.5,94.6,288.1,88.8z"/>
<polygon class="st16" points="45.1,357.7 90.4,317.1 56.6,366.3 "/>
<path class="st16" d="M273.9,282.7c0,0-83,35.1-158,5.9c-12.4-4.8-17.3-14.9-15.2-26.6c0,0,2.7,11.8,16.1,17.9
	C134.1,287.9,175.7,302.5,273.9,282.7z"/>
<linearGradient id="SVGID_00000095328142486792222430000016227149678416512403_" gradientUnits="userSpaceOnUse" x1="174.8219" y1="155.4458" x2="333.4003" y2="155.4458" gradientTransform="matrix(1.0565 0.3041 0.2889 -1.2911 -99.4026 315.4564)">
	<stop  offset="0" style="stop-color:#009444"/>
	<stop  offset="1" style="stop-color:#00A79D"/>
</linearGradient>
<path style="opacity:0.5;fill:url(#SVGID_00000095328142486792222430000016227149678416512403_);" d="M298,209.7
	c4.1-44.5-29.1-108.4-76.8-112.8c-47.7-4.4-92,52.4-96,96.9c-5.1,55.8,24.4,85.8,78.9,90.8C251.7,289,292.1,273.8,298,209.7z"/>
<linearGradient id="SVGID_00000014612483300632848230000003407560232501787274_" gradientUnits="userSpaceOnUse" x1="170.4537" y1="154.417" x2="329.0321" y2="154.417" gradientTransform="matrix(1.0565 0.3041 0.2889 -1.2911 -99.4026 315.4564)">
	<stop  offset="0" style="stop-color:#009444"/>
	<stop  offset="1" style="stop-color:#00A79D"/>
</linearGradient>
<path style="opacity:0.5;fill:url(#SVGID_00000014612483300632848230000003407560232501787274_);" d="M293,209.7
	c4.1-44.5-29.1-108.4-76.8-112.8c-47.7-4.4-92,52.4-96,96.9c-5.1,55.8,24.4,85.8,78.9,90.8C246.8,289,287.2,273.8,293,209.7z"/>
<g class="st19">
	<g>
		<g>
			<path d="M185.4,227.7c3.5-23.5-14-39.9-35.9-34C146.9,218.1,170.4,229.8,185.4,227.7z"/>
			<g>
				<path d="M157.4,219.1c-4.8-4.7-10.3-12.9-9-25.5c0-0.5,0.4-0.8,0.8-1c10.5-2.8,20.7-0.7,28,5.7c7.7,6.9,11.1,17.6,9.3,29.5
					c-0.1,0.5-0.5,0.9-0.9,0.9c-2.6,0.4-5.4,0.3-8.1-0.1C170.1,227.7,162.7,224.3,157.4,219.1z M175.6,200
					c-6.5-5.8-15.6-7.8-25.2-5.4c-0.9,11.3,4.1,18.7,8.4,22.9c6.7,6.5,16.8,10.1,25.5,9.2C185.7,215.9,182.6,206.2,175.6,200z"/>
			</g>
		</g>
		<path class="st20" d="M171.3,201.7c4.7,5.6,7.9,11.9,9.4,19.1c0.2,1.1,1.9,1.1,2.1,0c1-6.1-1.3-12.5-5.4-17
			c-1.4-1.5-3-2.8-4.8-3.7c-0.5-0.3-1.2-0.1-1.4,0.5C171,201,171,201.4,171.3,201.7L171.3,201.7z"/>
	</g>
	<g>
		<g>
			<path d="M214.9,234.8c5.7-24.5,29.2-33.7,48.4-19.5C256.4,240.2,228.8,242.6,214.9,234.8z"/>
			<g>
				<path d="M214.4,235.8c-0.5-0.3-0.7-0.8-0.6-1.3c2.9-12.4,10.4-21.6,20.6-25.4c9.6-3.5,20.4-1.6,29.7,5.2
					c0.4,0.3,0.6,0.8,0.4,1.3c-3.6,12.9-12.2,18.8-18.7,21.5c-7.3,3-15.9,3.5-23.4,1.7C219.5,238.2,216.8,237.2,214.4,235.8z
					 M214.9,234.8L214.9,234.8L214.9,234.8z M235.2,211.4c-9.2,3.4-16.1,11.7-18.9,22.8c8.1,4.2,19.5,4.6,28.6,0.8
					c5.9-2.5,13.7-7.8,17.2-19.2C253.6,209.8,243.9,208.2,235.2,211.4z"/>
			</g>
		</g>
		<path class="st20" d="M257.2,217.7c-5.4,5-10.1,10.5-16.2,14.4c-1,0.6-0.4,2.3,0.8,2.1c4-0.7,7.4-3.1,10.4-5.8
			c2.8-2.7,5.2-5.8,6.9-9.4c0.3-0.6,0-1.2-0.6-1.5C258,217.3,257.5,217.4,257.2,217.7L257.2,217.7z"/>
	</g>
	<g>
		<path d="M196.7,240.6c-8.1-1.3-16.9,1.8-23.5,8.4c-0.8,0.8-1,2.3-0.4,3.3c0.6,1,1.8,1.1,2.7,0.3c5.8-5.7,13.4-8.4,20.4-7.3
			c0.1,0,0.2,0,0.2,0c7.1,1.2,13.5,6.4,17.1,13.8c0.5,1.1,1.7,1.4,2.6,0.7c0.9-0.7,1.2-2.2,0.7-3.2c-4.1-8.5-11.5-14.4-19.6-15.9
			C196.9,240.6,196.8,240.6,196.7,240.6z"/>
	</g>
</g>
<linearGradient id="SVGID_00000178918244881433752440000013382788877596267190_" gradientUnits="userSpaceOnUse" x1="177.3062" y1="154.4095" x2="231.2487" y2="154.4095" gradientTransform="matrix(-1 0 0 1 500.3754 0)">
	<stop  offset="0" style="stop-color:#009444"/>
	<stop  offset="1" style="stop-color:#00A79D"/>
</linearGradient>
<path style="fill:url(#SVGID_00000178918244881433752440000013382788877596267190_);" d="M269.2,134.4c0,0,40.5-7.6,53.9,4.8
	c0,0-13.7,36-31.6,37.4C273.6,178,268.5,143.7,269.2,134.4z"/>
<linearGradient id="SVGID_00000155858724000119487450000008355459057748656312_" gradientUnits="userSpaceOnUse" x1="271.2071" y1="142.5356" x2="325.1496" y2="142.5356" gradientTransform="matrix(0.4326 0.9016 -0.9016 0.4326 160.0536 -214.1807)">
	<stop  offset="0" style="stop-color:#009444"/>
	<stop  offset="1" style="stop-color:#00A79D"/>
</linearGradient>
<path style="fill:url(#SVGID_00000155858724000119487450000008355459057748656312_);" d="M190.2,131.9c0,0-10.7-39.8-27.6-46.5
	c0,0-26.6,28-20.1,44.7C149,146.8,182.1,136.6,190.2,131.9z"/>
<g>
	<g>
		<g>
			<path class="st23" d="M226.6,99.4c-10.5-1.7-21.9-11-31-10.7c-9.1,0.4-18.4,16.9-17.7,27.4c0.8,10.6,14.1,18.8,26.9,21.2
				c12.8,2.4,33.6-5.3,47.5-4.1c13.9,1.2,17,2.8,27.4-2.6c10.4-5.5,20.1-15,17.3-19.8c-2.1-3.7-19.7-5.8-33.6-3L226.6,99.4z"/>
			<path class="st24" d="M263.3,107.8c-30.5,22.4-64.3,12.2-64.7-0.6c-0.2-6.9,10.2-14.7,10.2-14.7s0.1,0,0.2,0
				c5.8,2.7,11.8,5.9,17.6,6.8L263.3,107.8z"/>
			<path class="st25" d="M194.6,90.2c-5.3,5.8-9,12.8-10.9,20.4c-1.7,6.6-1.6,11.1,3.5,16.4c-1.6-0.8-3.1-2-4.2-3.5
				c-2.5-3.1-3-6.9-2.6-10.8C181.5,103.7,186.5,94.7,194.6,90.2L194.6,90.2z"/>
		</g>
		<g>
			<g>
				<path class="st26" d="M202.7,106.3c0,0,10.9-29.5,24.1-36.8c3.8-2.1,11.2,4.5,14.5,5.7c0,0,9.4-2.6,14.3-1.9
					c4.9,0.8,8.2,18.3,7.7,42.7c0,0-25.8,11.2-45.7,4C203.9,115.1,202.7,106.3,202.7,106.3z"/>
				<path class="st27" d="M263.3,116c0,0-25.8,11.2-45.7,4c-13.4-4.9-14.8-13.5-14.8-13.8c5.8,8.7,40.3,9.3,49,0.9
					c8.7-8.4,9.3-24.9,6.4-31.8C261.6,80.8,263.7,96.1,263.3,116z"/>
			</g>
			<path class="st25" d="M207.7,103.5c1.2-8.1,5.7-17.4,11.3-23.3c1.1-1.2,2.4-2.2,3.8-3.1C217.4,85.8,213.4,95,207.7,103.5
				L207.7,103.5z"/>
		</g>
		<g>
			<g>
				<path class="st23" d="M279.7,130.7c-10.4,5.5-13.5,3.9-27.4,2.6c-13.9-1.2-34.7,6.5-47.5,4.1c-0.3-0.1-0.7-0.1-1-0.2
					c-0.2,0-0.5-0.1-0.7-0.2c0,0-0.1,0-0.1,0c-0.2,0-0.4-0.1-0.5-0.1c-0.3-0.1-0.6-0.1-0.9-0.2c-0.2,0-0.4-0.1-0.6-0.2
					c-0.1,0-0.3-0.1-0.4-0.1c-0.2-0.1-0.4-0.1-0.6-0.2c-0.2-0.1-0.4-0.1-0.6-0.2c-0.4-0.1-0.8-0.3-1.2-0.4c-0.2-0.1-0.4-0.1-0.6-0.2
					c-0.2-0.1-0.4-0.1-0.6-0.2c-0.2-0.1-0.4-0.1-0.6-0.2c0,0,0,0,0,0c-0.4-0.1-0.8-0.3-1.2-0.5c-0.2-0.1-0.4-0.2-0.6-0.2
					c-0.1,0-0.2-0.1-0.2-0.1c-0.2-0.1-0.4-0.2-0.6-0.3c-0.7-0.3-1.3-0.6-2-1c-0.3-0.1-0.5-0.3-0.8-0.4c0,0,0,0,0,0
					c-0.2-0.1-0.4-0.2-0.7-0.4c0,0-0.1-0.1-0.1-0.1c-0.1-0.1-0.3-0.2-0.4-0.3l-0.5-0.3c7.5,3.7,14.9,5.8,25,2.2
					c10.1-3.6,23.3-17.8,48.9-25.9c13.9-2.7,31.5-0.7,33.6,3C299.7,115.7,290.1,125.2,279.7,130.7z"/>
				<path class="st28" d="M189.4,131.5c3,1.4,6.2,2.7,9.6,3.4c6.6,1.4,13.7,0.1,19.6-3.3c5.9-3.4,11.3-7.5,17.1-11
					c5.8-3.6,11.8-6.8,18.1-9.4c0.8-0.3,1.6-0.6,2.4-0.9c2.3-0.9,4.9-1.8,7.2-2.5c-6.4,2.2-12.7,4.8-18.7,8
					c-9.1,4.6-17.1,11-25.9,16.1c-4.5,2.5-9.6,3.8-14.7,3.8C198.9,135.6,194,133.8,189.4,131.5L189.4,131.5z"/>
				<path class="st29" d="M279.7,130.7c-10.4,5.5-13.5,3.9-27.4,2.6c-12.9-1.1-31.9,5.7-44.7,4.5c2.3-0.2,4.7-0.8,7.3-1.7
					c10.1-3.6,23.3-17.8,48.9-25.9c13.9-2.7,31.5-0.7,33.6,3c0,0,0,0,0,0.1C296.9,118.8,288.6,126,279.7,130.7z"/>
				<path class="st27" d="M256.9,133.8c-1.4-0.1-2.9-0.3-4.6-0.4c-6-0.5-13.3,0.7-20.8,2c8.8-3.4,22.1-8.2,29.2-6.9
					C265.8,129.4,261.4,131.8,256.9,133.8z"/>
			</g>
		</g>
	</g>
</g>
<linearGradient id="SVGID_00000063633302858856788720000012551667908645516937_" gradientUnits="userSpaceOnUse" x1="99.7725" y1="323.8031" x2="125.1688" y2="304.0467" gradientTransform="matrix(-1 0 0 1 500.3754 0)">
	<stop  offset="0" style="stop-color:#6D6E71"/>
	<stop  offset="0.1603" style="stop-color:#7F8083"/>
	<stop  offset="0.5139" style="stop-color:#A0A2A4"/>
	<stop  offset="0.8065" style="stop-color:#B5B6B9"/>
	<stop  offset="1" style="stop-color:#BCBEC0"/>
</linearGradient>
<path style="fill-rule:evenodd;clip-rule:evenodd;fill:url(#SVGID_00000063633302858856788720000012551667908645516937_);" d="
	M359,366.5l88.4-77c0,0,3.3-6.6-4.8-17.3c-8.1-10.7-18.1-8.9-18.1-8.9l-88.4,77c0,0-5.6,9.6,1.9,19.7C345.5,370,359,366.5,359,366.5
	z"/>
<path class="st1" d="M330.9,376.4l20-17.4c0,0,0.7-1.5-1.1-3.9c-1.8-2.4-4.1-2-4.1-2l-20,17.4c0,0-1.3,2.2,0.4,4.5
	C327.9,377.2,330.9,376.4,330.9,376.4z"/>
<path class="st1" d="M22.6,252.8l20-17.4c0,0,0.7-1.5-1.1-3.9s-4.1-2-4.1-2l-20,17.4c0,0-1.3,2.2,0.4,4.5
	C19.5,253.6,22.6,252.8,22.6,252.8z"/>
</svg>
