<?xml version="1.0" encoding="utf-8"?>
<!-- Generator: Adobe Illustrator 27.8.1, SVG Export Plug-In . SVG Version: 6.00 Build 0)  -->
<svg version="1.1" id="Layer_1" xmlns="http://www.w3.org/2000/svg" xmlns:xlink="http://www.w3.org/1999/xlink" x="0px" y="0px"
	 viewBox="0 0 500 500" style="enable-background:new 0 0 500 500;" xml:space="preserve">
<style type="text/css">
	.Drop_x0020_Shadow{fill:none;}
	.Round_x0020_Corners_x0020_2_x0020_pt{fill:#FFFFFF;stroke:#231F20;stroke-miterlimit:10;}
	.Live_x0020_Reflect_x0020_X{fill:none;}
	.Bevel_x0020_Soft{fill:url(#SVGID_1_);}
	.Dusk{fill:#FFFFFF;}
	.Foliage_GS{fill:#FFDD00;}
	.Pompadour_GS{fill-rule:evenodd;clip-rule:evenodd;fill:#44ADE2;}
	.st0{fill-rule:evenodd;clip-rule:evenodd;fill:#6D6E71;}
	.st1{fill-rule:evenodd;clip-rule:evenodd;fill:#58595B;}
	.st2{fill-rule:evenodd;clip-rule:evenodd;fill:url(#SVGID_00000093156727546270977800000015192448797841953980_);}
	.st3{fill:#E6E7E8;}
	.st4{fill:url(#SVGID_00000169554126873454257240000010301007628120159621_);}
	.st5{fill:url(#SVGID_00000020400505168281339060000005909811703790164618_);}
	.st6{fill:url(#SVGID_00000027594291665604957540000010179011111226845370_);}
	.st7{fill:url(#SVGID_00000066475099321789122910000014196163110161421746_);}
	.st8{fill-rule:evenodd;clip-rule:evenodd;fill:#D1D3D4;}
	.st9{opacity:0.71;fill-rule:evenodd;clip-rule:evenodd;fill:#BCBEC0;}
	.st10{fill-rule:evenodd;clip-rule:evenodd;fill:#203850;}
	.st11{opacity:0.5;fill-rule:evenodd;clip-rule:evenodd;fill:url(#SVGID_00000051382627021035756750000000161353309833173677_);}
	.st12{opacity:0.5;fill-rule:evenodd;clip-rule:evenodd;fill:url(#SVGID_00000032647984480473262110000012051831979467541685_);}
	.st13{fill-rule:evenodd;clip-rule:evenodd;fill:url(#SVGID_00000048500714692598791260000001049109649769097626_);}
	.st14{opacity:0.71;fill-rule:evenodd;clip-rule:evenodd;fill:#D1D3D4;}
	.st15{opacity:0.2;fill-rule:evenodd;clip-rule:evenodd;fill:url(#SVGID_00000154409680814430383520000010744758969436174486_);}
	.st16{fill-rule:evenodd;clip-rule:evenodd;fill:#FFFFFF;}
	.st17{fill:url(#SVGID_00000016793671834937560920000000307957130605634455_);}
	.st18{fill:url(#SVGID_00000103240124314290450390000011244962948298766270_);}
	.st19{fill-rule:evenodd;clip-rule:evenodd;fill:#A7A9AC;}
	.st20{opacity:0.5;fill-rule:evenodd;clip-rule:evenodd;fill:url(#SVGID_00000057143238283880733920000003564421772970802309_);}
	.st21{opacity:0.5;fill-rule:evenodd;clip-rule:evenodd;fill:url(#SVGID_00000120543916194297761830000011481169996273559195_);}
	.st22{fill-rule:evenodd;clip-rule:evenodd;fill:#E6E7E8;}
	.st23{opacity:0.5;fill:url(#SVGID_00000160905690363465933900000018093289148890230179_);}
	.st24{opacity:0.5;fill:url(#SVGID_00000081618819124343269610000017786135308094728382_);}
	.st25{opacity:0.35;}
	.st26{fill:#4D4D4D;}
</style>
<linearGradient id="SVGID_1_" gradientUnits="userSpaceOnUse" x1="0" y1="0" x2="0.7071" y2="0.7071">
	<stop  offset="0" style="stop-color:#DEDFE3"/>
	<stop  offset="0.1783" style="stop-color:#DADBDF"/>
	<stop  offset="0.3611" style="stop-color:#CECFD3"/>
	<stop  offset="0.546" style="stop-color:#B9BCBF"/>
	<stop  offset="0.7324" style="stop-color:#9CA0A2"/>
	<stop  offset="0.9181" style="stop-color:#787D7E"/>
	<stop  offset="1" style="stop-color:#656B6C"/>
</linearGradient>
<path class="st0" d="M346.2,185.7c-54.9-20.4-193.9,8.9-215.2,45.7c-10,17.2-13.5,80.1,3.8,125.3c17.3,45.1,61.3,94.4,122.5,85
	s129.1-70,127.5-217.5C384.6,212.8,368.6,194,346.2,185.7z"/>
<path class="st1" d="M357.6,176.5c-54.9-20.4-193.9,8.9-215.2,45.7c-10,17.2-13.5,80.1,3.8,125.3c17.3,45.1,61.3,94.4,122.5,85
	c61.2-9.4,129.1-70,127.5-217.5C396,203.7,380,184.9,357.6,176.5z"/>
<linearGradient id="SVGID_00000170246935019327091130000017453495669088922538_" gradientUnits="userSpaceOnUse" x1="412.1017" y1="360.8072" x2="439.9595" y2="339.1359">
	<stop  offset="0" style="stop-color:#6D6E71"/>
	<stop  offset="0.1603" style="stop-color:#7F8083"/>
	<stop  offset="0.5139" style="stop-color:#A0A2A4"/>
	<stop  offset="0.8065" style="stop-color:#B5B6B9"/>
	<stop  offset="1" style="stop-color:#BCBEC0"/>
</linearGradient>
<path style="fill-rule:evenodd;clip-rule:evenodd;fill:url(#SVGID_00000170246935019327091130000017453495669088922538_);" d="
	M457.7,407.6l-97-84.5c0,0-3.6-7.3,5.3-19s19.8-9.8,19.8-9.8l97,84.5c0,0,6.2,10.6-2,21.6C472.5,411.5,457.7,407.6,457.7,407.6z"/>
<path class="st1" d="M490.8,417.4l-21.9-19.1c0,0-0.8-1.6,1.2-4.3c2-2.7,4.5-2.2,4.5-2.2l21.9,19.1c0,0,1.4,2.4-0.5,4.9
	C494.1,418.3,490.8,417.4,490.8,417.4z"/>
<g>
	
		<ellipse transform="matrix(0.1725 -0.985 0.985 0.1725 -46.9605 447.8415)" class="st3" cx="243.1" cy="251.9" rx="139.1" ry="242"/>
	
		<linearGradient id="SVGID_00000059279922371568130360000014200829588094077071_" gradientUnits="userSpaceOnUse" x1="83.3263" y1="83.3907" x2="306.7159" y2="304.0959" gradientTransform="matrix(-0.5447 0.8386 0.8386 0.5447 177.0942 -95.9528)">
		<stop  offset="0" style="stop-color:#E6E7E8"/>
		<stop  offset="1" style="stop-color:#808285"/>
	</linearGradient>
	<path style="fill:url(#SVGID_00000059279922371568130360000014200829588094077071_);" d="M139.7,369.6
		c117.2,49.6,262,39.9,323.4-21.7S479.3,196.2,362,146.6s-262-39.9-323.4,21.7S22.5,320,139.7,369.6z"/>
	
		<ellipse transform="matrix(0.1725 -0.985 0.985 0.1725 -50.6037 456.0657)" class="st3" cx="246.1" cy="258.2" rx="139.1" ry="242"/>
	
		<linearGradient id="SVGID_00000040574684611111906070000007536013283878789768_" gradientUnits="userSpaceOnUse" x1="561.7856" y1="330.962" x2="156.7168" y2="219.2814" gradientTransform="matrix(0.9782 -0.2079 -0.2079 -0.9782 55.8911 541.6005)">
		<stop  offset="0" style="stop-color:#E6E7E8"/>
		<stop  offset="1" style="stop-color:#808285"/>
	</linearGradient>
	<path style="fill:url(#SVGID_00000040574684611111906070000007536013283878789768_);" d="M475.7,235.9
		c-39.5-78.6-173.9-135.5-300.2-127S-21.1,188,18.4,266.6s173.9,135.5,300.2,127C444.8,385.2,515.2,314.5,475.7,235.9z"/>
</g>
<g>
	<g>
		<g>
			
				<linearGradient id="SVGID_00000137130754785023810140000007199903182506484866_" gradientUnits="userSpaceOnUse" x1="381.3001" y1="159.9774" x2="461.0945" y2="159.9774" gradientTransform="matrix(0.9963 8.572040e-02 -8.572040e-02 0.9963 16.0822 -34.7284)">
				<stop  offset="1.576968e-02" style="stop-color:#F7941D"/>
				<stop  offset="0.278" style="stop-color:#FF5F5F"/>
				<stop  offset="0.399" style="stop-color:#EA5052"/>
				<stop  offset="0.6645" style="stop-color:#C13439"/>
				<stop  offset="0.8739" style="stop-color:#A7222A"/>
				<stop  offset="1" style="stop-color:#9E1C24"/>
			</linearGradient>
			<path style="fill:url(#SVGID_00000137130754785023810140000007199903182506484866_);" d="M424.8,200.6c0,0-30.1,12.7-45.8-2.7
				c-15.7-15.3-4.9-38.1-14.4-45.6c0,0,13.9,3.9,13.7,15.5c-0.2,11.6,17.1,5.5,10.7-7.7c-6.4-13.2-38-24-31.4-51.5
				c0,0,11,27.7,19.6,19.1c0,0,1.4-5.3-4.6-6.9c0,0,7.7-8,22.5,11.8c14.9,19.8,25.9,18.7,25.8,5.6c-0.1-13.1-14.8-12.8-14.8-12.8
				s46.4-9.4,37,50.4c0,0-3.3-11.7-8.5-15.8c0,0-5.5,9.1-3.7,13.5c0,0-26.1-10.4-32.1-22.5c0,0,8.8,25.4,20.6,32.6
				c0,0-7.3,3.1-12.7-0.1C406.8,183.3,412.7,198.8,424.8,200.6z"/>
			
				<linearGradient id="SVGID_00000166653138617617965350000012262119549222429374_" gradientUnits="userSpaceOnUse" x1="419.1766" y1="185.0002" x2="446.6586" y2="185.0002" gradientTransform="matrix(0.9963 8.572040e-02 -8.572040e-02 0.9963 16.0822 -34.7284)">
				<stop  offset="1.576968e-02" style="stop-color:#F7941D"/>
				<stop  offset="0.278" style="stop-color:#FF5F5F"/>
				<stop  offset="0.399" style="stop-color:#EA5052"/>
				<stop  offset="0.6645" style="stop-color:#C13439"/>
				<stop  offset="0.8739" style="stop-color:#A7222A"/>
				<stop  offset="1" style="stop-color:#9E1C24"/>
			</linearGradient>
			<path style="fill:url(#SVGID_00000166653138617617965350000012262119549222429374_);" d="M442.4,199.9c0,0-20.5-1.2-24.1-9.1
				c0,0,6.6-4.3,11-0.9c0,0-4.4-11.6-10.4-16.5c0,0,16.8,6.6,20.1,14.6c0,0-4-7-2.4-13C436.6,175,450.4,186,442.4,199.9z"/>
		</g>
	</g>
	<path class="st8" d="M464.7,227.4c0,0-19.1,3.3-32.9-10.9c-12.4-12.8,2-43.6,20.3-39.9c6.4,1.3,15,5.3,20.2,16.1
		C477.6,203.4,464.7,227.4,464.7,227.4z"/>
	<path class="st9" d="M472.4,192.7c-4.9-10.2-13-14.4-19.3-15.9c0,0.5-0.1,1.1-0.1,1.6c-1.3,14.8-11.6,26-23.2,25
		c-0.9-0.1-1.8-0.2-2.6-0.5c-0.2,5.1,1.2,10,4.6,13.5c13.8,14.2,32.9,10.9,32.9,10.9S477.6,203.4,472.4,192.7z"/>
	<path class="st10" d="M455.9,179.6c-1-0.3-2-0.6-2.9-0.8c-16.9-3.4-30.2,25-18.7,36.8c0.4,0.4,0.7,0.7,1.1,1.1
		C425,202.4,437.8,175.8,455.9,179.6z"/>
	
		<radialGradient id="SVGID_00000126303012719620847060000017841512861177079486_" cx="828.0145" cy="2.0467" r="81.7019" gradientTransform="matrix(0.5207 4.479748e-02 -4.479748e-02 0.5207 11.1728 163.3156)" gradientUnits="userSpaceOnUse">
		<stop  offset="0" style="stop-color:#FFFFFF"/>
		<stop  offset="1" style="stop-color:#623964"/>
	</radialGradient>
	
		<path style="opacity:0.5;fill-rule:evenodd;clip-rule:evenodd;fill:url(#SVGID_00000126303012719620847060000017841512861177079486_);" d="
		M432.4,198.4c2.2-4.9,5.1-9.8,8.5-14.6c0,0-3.4,2.7-5.8,7.4C432.8,195.5,432.4,198.4,432.4,198.4z"/>
	
		<radialGradient id="SVGID_00000051369091258186799620000001424680589219835531_" cx="814.6044" cy="-18.052" r="43.421" gradientTransform="matrix(0.5207 4.479748e-02 -4.479748e-02 0.5207 11.1728 163.3156)" gradientUnits="userSpaceOnUse">
		<stop  offset="0" style="stop-color:#FFFFFF"/>
		<stop  offset="1" style="stop-color:#623964"/>
	</radialGradient>
	
		<path style="opacity:0.5;fill-rule:evenodd;clip-rule:evenodd;fill:url(#SVGID_00000051369091258186799620000001424680589219835531_);" d="
		M438.4,196.1c-2.1,1.1-1.7-4.3,2.1-5.9C443.8,188.8,441.6,194.4,438.4,196.1z"/>
</g>
<radialGradient id="SVGID_00000078767625474016326380000005575013671178714556_" cx="610.5814" cy="-138.3428" r="333.6873" gradientTransform="matrix(0.522 2.495453e-02 -2.495453e-02 0.522 6.6247 184.4121)" gradientUnits="userSpaceOnUse">
	<stop  offset="5.586590e-03" style="stop-color:#2AEAFF"/>
	<stop  offset="0.1957" style="stop-color:#2DE9FE"/>
	<stop  offset="0.3577" style="stop-color:#38E6F9"/>
	<stop  offset="0.5095" style="stop-color:#49E1F1"/>
	<stop  offset="0.655" style="stop-color:#62D9E7"/>
	<stop  offset="0.7961" style="stop-color:#82CFD9"/>
	<stop  offset="0.9319" style="stop-color:#A9C4C8"/>
	<stop  offset="0.9903" style="stop-color:#BCBEC0"/>
</radialGradient>
<path style="fill-rule:evenodd;clip-rule:evenodd;fill:url(#SVGID_00000078767625474016326380000005575013671178714556_);" d="
	M351.6,277.5c-54.9,20.4-193.9-8.9-215.2-45.7c-10-17.2-13.5-80.1,3.8-125.3c17.3-45.1,61.3-94.4,122.5-85s129.1,70,127.5,217.5
	C390.1,250.4,374.1,269.2,351.6,277.5z"/>
<path class="st14" d="M305.5,279.8c-91.3-4.4-161.9-85.8-160.8-183.6c-1.6,3.5-3.1,6.9-4.4,10.3c-17.3,45.1-13.8,108-3.8,125.3
	c21.3,36.8,160.3,66.1,215.2,45.7c4.4-1.6,8.5-3.7,12.4-6C345.6,277.8,325.9,280.7,305.5,279.8z"/>
<linearGradient id="SVGID_00000116231965603012312240000006202013048150480539_" gradientUnits="userSpaceOnUse" x1="53.7683" y1="235.6175" x2="-15.8305" y2="197.2877" gradientTransform="matrix(0.8795 0.2602 -0.2602 0.8794 225.8131 -118.4494)">
	<stop  offset="0" style="stop-color:#623964"/>
	<stop  offset="1" style="stop-color:#FFFFFF"/>
</linearGradient>
<path style="opacity:0.2;fill-rule:evenodd;clip-rule:evenodd;fill:url(#SVGID_00000116231965603012312240000006202013048150480539_);" d="
	M228.2,28.8c-25.8,5.9-48,24.8-61.6,44.4c-10.5,15.2-17.9,34.5-22.2,51.9c14-5.6,33.5-20.4,51.3-40.3
	C215.2,63,227.3,41.4,228.2,28.8z"/>
<path class="st16" d="M184.6,54.5c-3.3-5.4-20.6,17.2-20.3,22.4C164.6,82,188.6,60.9,184.6,54.5z"/>
<g>
	<g>
		<g>
			
				<linearGradient id="SVGID_00000016762484908514571630000006702740897762649249_" gradientUnits="userSpaceOnUse" x1="69.8789" y1="296.2574" x2="170.9507" y2="296.2574" gradientTransform="matrix(0.9987 5.109705e-02 -5.109705e-02 0.9987 14.5239 -4.5232)">
				<stop  offset="1.576968e-02" style="stop-color:#F7941D"/>
				<stop  offset="0.278" style="stop-color:#FF5F5F"/>
				<stop  offset="0.399" style="stop-color:#EA5052"/>
				<stop  offset="0.6645" style="stop-color:#C13439"/>
				<stop  offset="0.8739" style="stop-color:#A7222A"/>
				<stop  offset="1" style="stop-color:#9E1C24"/>
			</linearGradient>
			<path style="fill:url(#SVGID_00000016762484908514571630000006702740897762649249_);" d="M124.9,347.8c0,0-37.5,17.3-58.1-1.4
				c-20.6-18.7-7.9-48.1-20.2-57.1c0,0,17.8,4.3,18,19c0.2,14.7,21.9,6.2,13.2-10.3c-8.7-16.5-49.1-28.7-42-63.9
				c0,0,15.1,34.6,25.7,23.4c0,0,1.5-6.8-6.2-8.6c0,0,9.3-10.5,29.1,13.9c19.7,24.4,33.6,22.5,33,6c-0.7-16.5-19.3-15.6-19.3-15.6
				s58.3-13.9,49,62.2c0,0-4.7-14.6-11.5-19.7c0,0-6.6,11.7-4.2,17.3c0,0-33.6-12-41.6-27.1c0,0,12.3,31.7,27.5,40.4
				c0,0-9.1,4.3-16.1,0.5C101.4,326.8,109.5,346.1,124.9,347.8z"/>
			
				<linearGradient id="SVGID_00000137119557240441632160000009355227280643089076_" gradientUnits="userSpaceOnUse" x1="117.8552" y1="327.9526" x2="152.6654" y2="327.9526" gradientTransform="matrix(0.9987 5.109705e-02 -5.109705e-02 0.9987 14.5239 -4.5232)">
				<stop  offset="1.576968e-02" style="stop-color:#F7941D"/>
				<stop  offset="0.278" style="stop-color:#FF5F5F"/>
				<stop  offset="0.399" style="stop-color:#EA5052"/>
				<stop  offset="0.6645" style="stop-color:#C13439"/>
				<stop  offset="0.8739" style="stop-color:#A7222A"/>
				<stop  offset="1" style="stop-color:#9E1C24"/>
			</linearGradient>
			<path style="fill:url(#SVGID_00000137119557240441632160000009355227280643089076_);" d="M147.2,346.1c0,0-26-0.6-30.9-10.4
				c0,0,8.2-5.7,13.9-1.6c0,0-6.1-14.4-13.9-20.5c0,0,21.5,7.7,26.1,17.6c0,0-5.4-8.7-3.7-16.4C138.7,314.8,156.7,328.2,147.2,346.1
				z"/>
		</g>
	</g>
	<path class="st19" d="M178.3,377.5c0,0-25.7,7.5-43.8-9.8c-16.3-15.6,0.6-55.3,24-51.4c8.2,1.4,19.3,6.1,26.3,19.5
		C191.8,349.1,178.3,377.5,178.3,377.5z"/>
	<path class="st14" d="M184.8,335.7c-6.7-12.7-17-17.6-25.1-19.2c0,0.7,0,1.4-0.1,2.1c-1,18.8-13.6,33.5-28.2,32.7
		c-1.1-0.1-2.3-0.2-3.4-0.5c0,6.5,2,12.6,6.4,16.9c18.1,17.3,43.8,9.8,43.8,9.8S191.8,349.1,184.8,335.7z"/>
	<path class="st10" d="M163.4,319.8c-1.3-0.4-2.6-0.7-3.7-0.9c-21.5-3.6-37.1,33-22.1,47.4c0.5,0.5,0.9,0.9,1.4,1.3
		C125.2,350.1,140.3,315.9,163.4,319.8z"/>
	
		<radialGradient id="SVGID_00000068674820039126004700000012171536543103711390_" cx="264.5102" cy="282.6316" r="103.488" gradientTransform="matrix(0.5219 2.670332e-02 -2.670332e-02 0.5219 16.4895 193.5718)" gradientUnits="userSpaceOnUse">
		<stop  offset="0" style="stop-color:#FFFFFF"/>
		<stop  offset="1" style="stop-color:#623964"/>
	</radialGradient>
	
		<path style="opacity:0.5;fill-rule:evenodd;clip-rule:evenodd;fill:url(#SVGID_00000068674820039126004700000012171536543103711390_);" d="
		M134.4,344.7c2.5-6.3,6.1-12.6,10.2-18.9c0,0-4.1,3.6-7,9.6C134.8,341,134.4,344.7,134.4,344.7z"/>
	
		<radialGradient id="SVGID_00000062156062118506072830000015328710916875540635_" cx="247.5242" cy="257.1735" r="54.9993" gradientTransform="matrix(0.5219 2.670332e-02 -2.670332e-02 0.5219 16.4895 193.5718)" gradientUnits="userSpaceOnUse">
		<stop  offset="0" style="stop-color:#FFFFFF"/>
		<stop  offset="1" style="stop-color:#623964"/>
	</radialGradient>
	
		<path style="opacity:0.5;fill-rule:evenodd;clip-rule:evenodd;fill:url(#SVGID_00000062156062118506072830000015328710916875540635_);" d="
		M141.9,341.6c-2.6,1.5-2.3-5.3,2.4-7.6C148.5,332.1,145.9,339.2,141.9,341.6z"/>
</g>
<polygon class="st22" points="451.2,349.4 401.5,304.9 438.6,358.9 "/>
<path class="st22" d="M200.3,267.2c0,0,91.1,38.5,173.3,6.5c13.6-5.3,18.9-16.3,16.7-29.2c0,0-3,12.9-17.7,19.7
	C353.6,272.9,308,288.9,200.3,267.2z"/>
<linearGradient id="SVGID_00000018924916089330059900000004938557449774873236_" gradientUnits="userSpaceOnUse" x1="180.4485" y1="177.4055" x2="354.3966" y2="177.4055" gradientTransform="matrix(1.0565 -0.3041 0.2889 1.2911 -59.2233 17.3687)">
	<stop  offset="0" style="stop-color:#009444"/>
	<stop  offset="1" style="stop-color:#00A79D"/>
</linearGradient>
<path style="opacity:0.5;fill:url(#SVGID_00000018924916089330059900000004938557449774873236_);" d="M366.7,145.7
	c4.5,48.8-31.9,118.9-84.3,123.7C230,274.1,181.5,211.8,177.1,163c-5.6-61.2,26.8-94.1,86.5-99.6C315.9,58.7,360.2,75.4,366.7,145.7
	z"/>
<linearGradient id="SVGID_00000032649994661442958860000001249694405833478569_" gradientUnits="userSpaceOnUse" x1="175.6569" y1="176.2769" x2="349.6049" y2="176.2769" gradientTransform="matrix(1.0565 -0.3041 0.2889 1.2911 -59.2233 17.3687)">
	<stop  offset="0" style="stop-color:#009444"/>
	<stop  offset="1" style="stop-color:#00A79D"/>
</linearGradient>
<path style="opacity:0.5;fill:url(#SVGID_00000032649994661442958860000001249694405833478569_);" d="M361.3,145.7
	c4.5,48.8-31.9,118.9-84.3,123.7c-52.4,4.8-100.9-57.5-105.3-106.3c-5.6-61.2,26.8-94.1,86.5-99.6
	C310.5,58.7,354.9,75.4,361.3,145.7z"/>
<g class="st25">
	<g>
		<g>
			<path d="M309.1,204.1c-5.1-36,21.7-60.8,55.1-51.7C367.9,189.6,331.9,207.4,309.1,204.1z"/>
			<g>
				<path d="M321.3,205.7c-4.2,0.6-8.5,0.6-12.4,0c-0.7-0.1-1.3-0.7-1.4-1.4c-2.6-18.2,2.7-34.6,14.5-45.1
					c11.1-9.8,26.7-12.9,42.8-8.6c0.7,0.2,1.2,0.8,1.2,1.5c1.9,19.3-6.6,31.8-14,38.9C343.7,199,332.4,204.2,321.3,205.7z
					 M310.6,202.6c13.2,1.4,28.7-4.1,39-13.9c6.7-6.4,14.4-17.7,13.1-34.9c-14.5-3.6-28.5-0.7-38.5,8.1
					C313.5,171.2,308.6,186,310.6,202.6z"/>
			</g>
		</g>
		<path class="st26" d="M330.8,164.5c-7.2,8.5-12.2,18.2-14.5,29.1c-0.3,1.7-3,1.7-3.2-0.1c-1.5-9.3,2.1-19.1,8.3-25.9
			c2.1-2.3,4.6-4.3,7.4-5.7c0.8-0.4,1.8-0.1,2.2,0.7C331.3,163.3,331.2,164,330.8,164.5L330.8,164.5z"/>
	</g>
	<g>
		<g>
			<path d="M270.6,201.3c13.4-33.8-6.9-64.2-41.5-63.2C216.8,173.4,247.6,199.1,270.6,201.3z"/>
			<g>
				<path d="M258.4,200c-10.4-4.1-20.2-11.8-26.4-21.4c-5.6-8.6-10.9-22.8-4.5-41.1c0.2-0.7,0.9-1.1,1.6-1.1
					c16.6-0.5,31.1,6.2,39.6,18.3c9,12.9,10.3,30.1,3.5,47.2c-0.3,0.7-1,1.1-1.7,1.1C266.4,202.6,262.4,201.6,258.4,200z
					 M270.6,201.3L270.6,201.3L270.6,201.3z M230.4,139.8c-5.3,16.5-0.5,29.2,4.5,37c7.7,12,21.5,21,34.6,22.7
					c5.8-15.6,4.5-31.1-3.6-42.8C258.2,145.8,245.3,139.6,230.4,139.8z"/>
			</g>
		</g>
		<path class="st26" d="M234.4,146c2.3,10.3,3.3,20.8,7.4,30.6c0.7,1.6-1.5,3-2.7,1.8c-4.1-4.2-6.3-9.8-7.5-15.4
			c-1.1-5.6-1.4-11.3-0.4-16.8c0.2-0.9,1-1.5,1.9-1.3C233.8,144.9,234.3,145.4,234.4,146L234.4,146z"/>
	</g>
	<g>
		<path d="M261,213.7c14,4.5,25.9,15.1,32,28.6c0.8,1.7,0,3.7-1.7,4.5c-1.7,0.8-3.7,0-4.5-1.7c-5.2-11.7-15.6-20.9-27.8-24.8
			c-0.1,0-0.3-0.1-0.4-0.1c-12.4-3.8-26.3-2.1-37.4,4.7c-1.6,1-3.7,0.5-4.7-1.1c-1-1.6-0.5-3.7,1.1-4.7c12.7-7.8,28.8-9.8,43-5.4
			C260.6,213.6,260.8,213.6,261,213.7z"/>
	</g>
</g>
</svg>
